<svg id="Layer_1" data-name="Layer 1" xmlns="http://www.w3.org/2000/svg" viewBox="0 0 1200 650"><defs><style>.cls-1{fill:#aa7a4b;}</style></defs><title>Logos</title><path class="cls-1" d="M523.1,376.13a.89.89,0,0,1,.87-.89h9.65a.8.8,0,0,1,.8.8.82.82,0,0,1-.8.82h-8.76v5.58h7.76a.8.8,0,0,1,0,1.61h-7.76v6a.88.88,0,1,1-1.76,0Zm14.37-.8a.86.86,0,1,1,1.72,0v14.76a.84.84,0,0,1-.85.87.86.86,0,0,1-.87-.87Zm4.95,9.81v0a6,6,0,0,1,12,0v0a6,6,0,0,1-6,6A5.91,5.91,0,0,1,542.41,385.13Zm10.26,0v0a4.36,4.36,0,0,0-4.28-4.5,4.26,4.26,0,0,0-4.22,4.46v0a4.33,4.33,0,0,0,4.26,4.48A4.25,4.25,0,0,0,552.67,385.13Zm7.23,5.11-3.5-9.74a1.58,1.58,0,0,1-.11-.47.85.85,0,0,1,.87-.83.9.9,0,0,1,.87.71l2.9,8.65,2.92-8.67a.88.88,0,0,1,.85-.69h.09a.91.91,0,0,1,.89.69l2.9,8.67,2.94-8.7a.84.84,0,0,1,.83-.67.83.83,0,0,1,.85.8,1.55,1.55,0,0,1-.11.47l-3.52,9.77a1,1,0,0,1-.94.78h-.07a1,1,0,0,1-.94-.78l-2.88-8.41-2.9,8.41a1,1,0,0,1-.94.78h0A1,1,0,0,1,559.9,390.24Zm21,.87a5.73,5.73,0,0,1-5.75-6v0a5.69,5.69,0,0,1,5.53-6c3.41,0,5.35,2.79,5.35,5.84a.8.8,0,0,1-.8.8h-8.34a4,4,0,0,0,4.06,3.9,4.71,4.71,0,0,0,3.32-1.34.74.74,0,0,1,1.25.54.74.74,0,0,1-.27.56A5.86,5.86,0,0,1,580.89,391.11Zm3.41-6.67c-.18-2.1-1.38-3.92-3.68-3.92-2,0-3.52,1.67-3.75,3.92Zm4.85-4.37a.87.87,0,0,1,.85-.87.86.86,0,0,1,.87.87v2.16a4.77,4.77,0,0,1,4-3.08.82.82,0,0,1,.85.87.85.85,0,0,1-.76.87c-2.23.27-4.06,1.94-4.06,5.26v3.92a.86.86,0,1,1-1.72,0ZM616,390.73l-2-2.12a6.84,6.84,0,0,1-5.13,2.45c-2.81,0-4.9-1.76-4.9-4.37v0c0-2.07,1.38-3.57,3.77-4.5a5.05,5.05,0,0,1-1.56-3.43v0a3.81,3.81,0,0,1,4.12-3.7,3.61,3.61,0,0,1,3.79,3.52v0c0,2-1.41,3.26-3.68,4.06l3.57,3.63a20.55,20.55,0,0,0,1.63-3,.79.79,0,0,1,1.52.33,1,1,0,0,1-.11.4,19.62,19.62,0,0,1-1.94,3.32l2.16,2.21a.94.94,0,0,1,.33.69.81.81,0,0,1-.83.82A1,1,0,0,1,616,390.73Zm-3.1-3.21-4.19-4.28c-2.07.76-3,2-3,3.34v0a3,3,0,0,0,3.26,2.94A5.29,5.29,0,0,0,612.92,387.52Zm-.49-8.9v0a2.12,2.12,0,0,0-2.21-2.16,2.24,2.24,0,0,0-2.37,2.25v0c0,.91.38,1.61,1.56,2.88C611.4,380.92,612.43,380,612.43,378.62ZM627.36,376a.88.88,0,1,1,1.76,0v13.2h8.1a.82.82,0,0,1,.8.82.8.8,0,0,1-.8.8h-9a.89.89,0,0,1-.87-.89Zm13.47-.31a1,1,0,0,1,2,0V376a1,1,0,0,1-2,0Zm.16,4.37a.87.87,0,0,1,.85-.87.86.86,0,0,1,.87.87v10a.84.84,0,0,1-.85.87.86.86,0,0,1-.87-.87Zm6.15.76h-.94a.73.73,0,0,1-.73-.76.74.74,0,0,1,.73-.74h.94v-1a4.07,4.07,0,0,1,1-3,3.4,3.4,0,0,1,2.48-.89,5.82,5.82,0,0,1,1.36.13.76.76,0,0,1,.63.73.74.74,0,0,1-.83.74,6.13,6.13,0,0,0-.94-.11c-1.34,0-2,.8-2,2.45v.94h3a.73.73,0,0,1,.76.74.75.75,0,0,1-.76.74h-3v9.25a.85.85,0,0,1-.85.87.87.87,0,0,1-.87-.87Zm12.35,10.28a5.73,5.73,0,0,1-5.75-6v0a5.69,5.69,0,0,1,5.53-6c3.41,0,5.35,2.79,5.35,5.84a.8.8,0,0,1-.8.8h-8.34a4,4,0,0,0,4.06,3.9,4.71,4.71,0,0,0,3.32-1.34.74.74,0,0,1,1.25.54.74.74,0,0,1-.27.56A5.86,5.86,0,0,1,659.49,391.11Zm3.41-6.67c-.18-2.1-1.38-3.92-3.68-3.92-2,0-3.52,1.67-3.75,3.92Zm53.78,14a147.66,147.66,0,0,1-19.39,21.47,45.26,45.26,0,0,1-7.21,2.05c-3.68.71-8.1,1.22-12,.38a.81.81,0,0,0-.2-.41c-5.24-6-13.54-9.3-21-10.07-4-.42-1.76,1.07-1.24,1.68,5.57,6.47,12.86,11,21.29,9.64l.39-.09c3.86.94,8.23.56,12-.09a46,46,0,0,0,6.26-1.56l-1.34,1.16a106.61,106.61,0,0,1-24.06,9.51.8.8,0,0,0-.28-.48c-4.38-4.06-10.33-5.68-16.18-5.91a49,49,0,0,0-9,.54,31.84,31.84,0,0,0-4.85,1.43c-3.91,1.34,3.79,4.49,5.18,5.27a39.27,39.27,0,0,0,9.43,3.63c5.21,1.26,10.5.49,14.55-3a66.08,66.08,0,0,0,19.3-6.15q-4.37,3.36-9,6.37a156.46,156.46,0,0,1-49.44,20.88c-8.28.38-16.59-1.38-22.91-6.58-1.46-8.16-9.45-11.39-16.49-14a.35.35,0,0,0-.22,0,.44.44,0,0,0-.15.08c-.86.73,1.26,4.88,1.52,5.38a24.9,24.9,0,0,0,3.59,5.41,12.74,12.74,0,0,0,11,4.59,1.3,1.3,0,0,0,.52-.07c4.66,3.82,10.77,5.9,17.13,6.54l-.29.06c-5.2-.3-17.74,1-26.12-1.56.08-.49-3-5.44-3.33-5.89-.67-.91-1.38-1.78-2.14-2.6a27.2,27.2,0,0,0-4.79-4.34,18.13,18.13,0,0,0-6.38-2.35,37.63,37.63,0,0,0-6.76-.64,4.5,4.5,0,0,0-1.75.17.7.7,0,0,0-.41.31.64.64,0,0,0,0,.37,3,3,0,0,0,.66,1.31c1.24,1.67,2.46,3.33,3.81,4.9,6,7.06,10.11,8.92,20.59,9.56a77.65,77.65,0,0,0,10.32,2c1.8.25,3.6.43,5.41.59A173.87,173.87,0,0,1,593,459.22c-3.41.05-6.84,0-10.29-.12q-2.45-.18-4.88-.27c-12-.84-24.09-3.14-35.33-8.06a109.32,109.32,0,0,1-11.06-5.66c-3.44-3-6.63-6.92-7.75-12.27,2.61-5.65,2.6-11.13.84-15.44a20,20,0,0,0-3.64-5.72c-.37-.42-3.47-4-4.63-2.94a.88.88,0,0,0-.16.19.66.66,0,0,0-.08.3c-.87,10.15-1.64,21.78,6.55,24.72l.09,0a21.56,21.56,0,0,0,3.14,7.68,278.5,278.5,0,0,1-22.78-16.88,62.86,62.86,0,0,1-5.07-5.46,89.92,89.92,0,0,1-7.49-10.92,1.37,1.37,0,0,0,.19-1c-.88-6.06-2.62-13-7.55-17.36-.37-.32-.91-.27-1.17.77-1.71,7,1.8,13,7.15,17.63a1.24,1.24,0,0,0,.42.22c1,1.67,2,3.3,3.06,4.92.63,1.07,1.28,2.1,1.95,3.11a123.33,123.33,0,0,0-13-11.47,1.44,1.44,0,0,0-.08-.19c-3.26-6.23-7.3-13.69-15.18-15.4a19.26,19.26,0,0,0-5.22-.36c-.64,0-.83.49-.71,1.16,0,6.63,4.81,11.14,10.82,13.56a33,33,0,0,0,6.11,1.86c.57.11,2.83.58,3.83.23a122.29,122.29,0,0,1,17.51,16.28,52.9,52.9,0,0,0-7.62-4.67l-1.1-.8c-1-.71-1.95-1.43-2.94-2.14a36.11,36.11,0,0,0-6.15-3.66c-3.42-1.52-7.34-1.38-11.23-.89a.66.66,0,0,0-.5.75.61.61,0,0,0,.05.34c2.1,4.1,6.18,6.41,10.7,7.44a33.38,33.38,0,0,0,5.27.73,23.51,23.51,0,0,0,5.7-.08,2.5,2.5,0,0,0,.84-.29c2,1.07,4.8,2.75,7.44,4.37-.06.33,22,18.72,34,25.42a60.94,60.94,0,0,0-9.84-1.48l-.13,0-1.09-.45c-.76-.33-1.51-.68-2.26-1-2.91-1.38-5.84-2.85-9-3.36a14.6,14.6,0,0,0-6.06.34,14.75,14.75,0,0,0-5.5,2.36c-.17.13-.35.31-.33.53a.61.61,0,0,0,.24.37,20.81,20.81,0,0,0,3.72,3,17.06,17.06,0,0,0,5.39,1.84,26.69,26.69,0,0,0,8.29.07,30.41,30.41,0,0,0,4-.82q.93-.26,1.84-.58a6.36,6.36,0,0,0,1.77-.89c3.57,0,11.32,1.57,11.41,1.46a94.1,94.1,0,0,0,11.59,5.19,101.06,101.06,0,0,0,15.38,4.22A56,56,0,0,0,551.9,462c-5.19-1.29-10.26.41-14.33,3.89a39.27,39.27,0,0,0-6.78,7.49c-.89,1.32-6.34,7.61-2.24,7a31.84,31.84,0,0,0,5-.91,49,49,0,0,0,8.31-3.61c5.11-2.85,9.69-7,11.77-12.58a.81.81,0,0,0,0-.55,120.15,120.15,0,0,1,15.25-2.18c2.92.4,5.86.7,8.8.91-1,.22-1.92.47-2.86.76-3.61,1.1-7.68,2.74-10.7,5.32l-.39.1c-8.12,2.63-12.6,9.93-14.64,18.22-.19.77-1.55,3.13,1.87.94,6.28-4,12.18-10.76,14.16-18.45a.8.8,0,0,0,0-.46c3.11-2.51,7.28-4,10.88-5.08a43.57,43.57,0,0,1,5.19-1.13c5.54.27,11.08.25,16.54,0,2.49-.1,5-.27,7.46-.48a20.51,20.51,0,0,0-4.24,3.29,12.17,12.17,0,0,0-4,1A14.19,14.19,0,0,0,591.1,471a18.5,18.5,0,0,0-2,4.76,24.09,24.09,0,0,0-.56,2.55q-.11.64-.18,1.29c-.11,1-.79,5.11-.38,5.42s1.41-1.06,1.61-1.29l.18-.21c2.56-2.95,5.61-5.6,8-8.64a18.84,18.84,0,0,0,2.89-4.9,11.93,11.93,0,0,0,.68-2.7,10.07,10.07,0,0,0,.08-1.06,21.45,21.45,0,0,1,6.87-5.09l-.13,0a170.79,170.79,0,0,0,30.44-5.89c-.94.56-1.87,1.12-2.79,1.7a77.68,77.68,0,0,0-8.57,6.07A93.69,93.69,0,0,0,616.26,474a42.75,42.75,0,0,0-6.14,13.26,1,1,0,0,0,.2.42c.36.41,5.1-1.21,6.12-1.69a17.08,17.08,0,0,0,2.94-1.76,18.36,18.36,0,0,0,4.44-4.82,25.28,25.28,0,0,0,2.77-6c.34-1.06.62-2.15.86-3.26.12-.55.85-6.34.58-6.75a79.08,79.08,0,0,1,8.22-5.79q3.08-2,6.3-3.69l1-.31a158.19,158.19,0,0,0,20.57-8.3l-.29.27a22.05,22.05,0,0,0-2.46,2.64c-7.77,3.79-16.06,10.5-15.14,20,0,.66.15,1,.68.91,9.71-2.34,12.41-11.2,15.44-19.74.59-.68,1.12-1.44,1.71-2.06,1.2-1.26,2.58-2.34,3.73-3.64a.82.82,0,0,0,.16-.29,147,147,0,0,0,20.41-12.89c-1.24,1.35-2.46,2.71-3.63,4.12a77.68,77.68,0,0,0-6.3,8.4l-.4.15a11.77,11.77,0,0,0-2.92,2.24,17.08,17.08,0,0,0-2.25,2.58,18.36,18.36,0,0,0-2.73,6,25.28,25.28,0,0,0-.78,6.58c0,1.12.07,2.24.19,3.36q.09.84.21,1.67a23,23,0,0,0,.71,3.75c.13.41.23,1.06.8,1.32a1,1,0,0,0,1.25-.28l.14-.32c2-4.47,4.59-8.73,6.34-13.28a25.13,25.13,0,0,0,1.71-7,16.64,16.64,0,0,0-.1-3.58,10.86,10.86,0,0,0-.36-1.81,4.48,4.48,0,0,0-.36-1,1,1,0,0,0-.32-.34l-.07,0a80.9,80.9,0,0,1,5.91-7.8,106.09,106.09,0,0,1,9.29-9.79A131.14,131.14,0,0,0,718,399.67C718.65,398.73,717.41,397.42,716.68,398.41Zm-46.15,20.53c.21.27.44.51.67.75a66.41,66.41,0,0,1-8.58-4.28A86.44,86.44,0,0,1,670.53,418.94Zm-10.18-2.87A55.28,55.28,0,0,0,673.28,422C668.39,421.62,664.19,419.26,660.35,416.07Zm6.14,14.86a69,69,0,0,0-20.37-3.09C653.19,427,660.35,427.43,666.49,430.93Zm-6.18-.1c-4.45-.47-8.92-.74-13.34-1.4A121.89,121.89,0,0,1,660.32,430.82Zm-6.23.86c3.08.2,6.14.55,9.19,1a49.68,49.68,0,0,1-14.2-1.27C650.74,431.51,652.42,431.58,654.09,431.69Zm-3,1.91a41.91,41.91,0,0,0,15.6.15C661.63,436.61,656.21,435.77,651,433.6Zm-56.57,8.74a31.56,31.56,0,0,0,8.27,5.93A13.74,13.74,0,0,1,594.47,442.34Zm-1.55-4c3.2,3.06,6.67,5.81,10.06,8.64A30,30,0,0,1,592.92,438.34Zm10,7a100.44,100.44,0,0,0-9.12-7.72c3.5,2.05,6.76,4.26,9.17,7.53A.36.36,0,0,0,603,445.38Zm2.14,1a20.25,20.25,0,0,0-5.65-6.62,13.59,13.59,0,0,1,5.73,6.69Zm-16.6-.89a59.88,59.88,0,0,0-8.43-4.6A19.29,19.29,0,0,1,588.5,445.53Zm2.32,3.86c-3.11-1.59-9.38-5.31-12.29-7.2C581.67,443.73,587.93,447.48,590.82,449.4Zm-14.86-7c.61.84,5.79,6,15.16,10C590.08,452.13,582.63,451.6,576,442.36Zm-58.6-20.11a18.1,18.1,0,0,0,4.12,9C518.82,429.2,517.71,426,517.35,422.26Zm.63-7.85a116.42,116.42,0,0,0,3.45,14.37C519,424.87,518.33,419.8,518,414.4Zm4.3,11.64c-1-4.31-1.91-8.64-3.17-12.75,1.9,3.1,3.23,11.93,3.21,12.12S522.3,425.83,522.28,426Zm.06-10a16.57,16.57,0,0,1,1.83,12.06A38.23,38.23,0,0,0,522.34,416Zm-39.58-22.24a40.73,40.73,0,0,0,4.41,10.71C484.6,401.34,482.78,397.87,482.76,393.81Zm1.19-.48a38.82,38.82,0,0,1,3.94,9.3A46,46,0,0,1,484,393.32Zm-10.48,2.8a23.3,23.3,0,0,0-9.65-5.28A15.72,15.72,0,0,1,473.47,396.12Zm-11.1-2a34.42,34.42,0,0,0,8.61,8.34C467,400.73,463.83,398.09,462.37,394.14Zm1.58-.56c4,3.33,8,6.77,12.27,9.83A33.38,33.38,0,0,1,463.95,393.58Zm1.26-.89c5,2.05,8.44,5.6,11.74,9.5A117.63,117.63,0,0,0,465.2,392.69Zm7,20.76a42.66,42.66,0,0,0,8.26,4.11A14.77,14.77,0,0,1,472.23,413.45Zm1.06-.87a71.08,71.08,0,0,1,9.39,3.83A46.16,46.16,0,0,1,473.29,412.58Zm.83-1.29a14.51,14.51,0,0,1,7.11,1.82c1.24.73,2.45,1.52,3.64,2.33A41.24,41.24,0,0,0,474.12,411.29Zm37.17,32.87a31.6,31.6,0,0,0-6.09,0A15.14,15.14,0,0,1,511.29,444.16Zm-8.7,3.41a39.89,39.89,0,0,0,10.67,2.13A18.24,18.24,0,0,1,502.59,447.57Zm.37-1.23c3.94.52,7.85,1.09,11.76,1.76A41.09,41.09,0,0,1,503,446.34Zm4.89-.81a44.2,44.2,0,0,1,10.32,1.67C514.77,446.5,511.32,445.93,507.85,445.52Zm41.9,17.39a41.91,41.91,0,0,0-13.85,7.17C539.53,465.82,544,462.61,549.75,462.91Zm-2.51,2.5c-2.54,1.73-5.1,3.43-7.77,5-1.44.85-2.91,1.66-4.32,2.55A49.67,49.67,0,0,1,547.24,465.42Zm-1.82,3a121.85,121.85,0,0,1-11.27,7.27C537.8,473.06,541.66,470.8,545.42,468.37Zm-11.31,9.07a69,69,0,0,0,16.78-12C547,471.39,540.81,475,534.11,477.45Zm25.79-3.08a86.38,86.38,0,0,1-5.47,6.72,66.42,66.42,0,0,1,5.73-7.69C560.07,473.71,560,474,559.9,474.37Zm-7.78,7.16c2-4.58,4.66-8.58,8.86-11.13A55.29,55.29,0,0,0,552.12,481.52ZM595.94,468a45.77,45.77,0,0,0-4.46,6.17A14.75,14.75,0,0,1,595.94,468Zm1.64.31c-1.41,2.34-4.62,7.13-6.31,9.33C592.67,475.31,595.84,470.5,597.58,468.32Zm-.27,3.75c-.5.71-1,1.4-1.62,2.07a23.77,23.77,0,0,1-2.38,2.8,20,20,0,0,1,1.19-1.89c.26-.33.55-.65.81-1,.53-.7,2.49-2.87,2.66-3Q597.66,471.57,597.31,472.07Zm16.21,11.27a20.55,20.55,0,0,1,3-5.74c.65-.89,1.35-1.74,2.08-2.58a30.52,30.52,0,0,1,3-3.47,26.39,26.39,0,0,1-1.56,2.37c-.33.42-.7.81-1,1.23q-1,1.32-2,2.67t-1.86,2.76A13.27,13.27,0,0,0,613.52,483.34Zm4.34-.41a59.86,59.86,0,0,0,5.75-7.69A19.28,19.28,0,0,1,617.86,482.93Zm-1.92-.5c1.85-2.93,6-8.92,8.18-11.66C622.28,473.71,618.16,479.72,615.94,482.43Zm38-28.18a42,42,0,0,0-6.39,10A18.14,18.14,0,0,1,654,454.24Zm4.24-2.2c-3.28,3.94-6.24,8.16-9.29,12.29A39.6,39.6,0,0,1,658.21,452Zm-9.16,14.88a25.81,25.81,0,0,0,7.51-7.38A17.36,17.36,0,0,1,649.05,466.92Zm1-2.08A140.36,140.36,0,0,0,658.91,453C656.52,457.47,654,461.66,650,464.84Zm21.6-7a19.28,19.28,0,0,1,3.1-9.09A59.85,59.85,0,0,0,671.63,457.87Zm.91,4.41c.83-3.37,2.9-10.36,4.17-13.62C675.86,452,673.75,459,672.54,462.28Zm5.1-8.85c-.34,1-.74,2.08-1.18,3.09a30.52,30.52,0,0,1-1.81,4.24,26.42,26.42,0,0,1,.75-2.73c.19-.5.42-1,.6-1.48q.57-1.57,1.06-3.16t.91-3.2a13.25,13.25,0,0,0,.76-3.15A20.54,20.54,0,0,1,677.63,453.44ZM718.8,247.31c-3.13-6.34-9.89-10.82-15.93-14.13a2.31,2.31,0,0,0-.83-.28c-.81-.69-1.71-1.31-2.44-1.89q-2.52-2-5.2-3.82c-1.7-1.15-3.45-2.21-5.24-3.21a34.44,34.44,0,0,0,5,1.51l.06,0c6.63,4.15,15.62,8.11,22.76,5.21.57-.23.23-.69.19-.77-4.73-8.57-15.28-7.53-22.53-5.67l-.07,0a6.36,6.36,0,0,0-.64.21,79.48,79.48,0,0,1-9.78-3.73c-11.08-9.31-22.75-17.88-36-23.18-.74-.3-1.48-.57-2.23-.85a60.68,60.68,0,0,0,6.55-.29l.13,0,1.15.27c.8.2,1.6.42,2.4.65,3.1.88,6.23,1.85,9.47,1.82a14.6,14.6,0,0,0,5.92-1.34,14.75,14.75,0,0,0,5-3.23.66.66,0,0,0,.24-.57.61.61,0,0,0-.3-.33,20.81,20.81,0,0,0-4.16-2.32,17.06,17.06,0,0,0-5.62-.93,26.69,26.69,0,0,0-8.19,1.3,30.42,30.42,0,0,0-3.78,1.47q-.87.41-1.72.88a6.36,6.36,0,0,0-1.6,1.17,34.46,34.46,0,0,1-8.31.47c-14.41-4.85-29.79-6.28-44.66-6.19a53,53,0,0,0,7.25-3c5.32.58,10.11-1.79,13.68-5.79a35.77,35.77,0,0,0,5.27-8.08,39.85,39.85,0,0,0,2.54-7.58.41.41,0,0,0,0-.37c-.49-.6-5.12,1.85-6,2.19a33.59,33.59,0,0,0-8.23,5.15c-4.3,3.43-7.89,7.93-9.1,13.39a.81.81,0,0,0,0,.55,124.69,124.69,0,0,1-12.54,3.71q-5.72.26-11.41.9c1-.38,2-.79,3-1.25,3.43-1.58,7.24-3.75,9.89-6.71a3.09,3.09,0,0,0,.37-.15c7.69-3.7,11.14-11.54,12.05-20,.09-.79.49-2.7-.91-1.3-5.15,5.41-11.68,12.93-12.61,20.81a.81.81,0,0,0,.07.46c-2.74,2.91-6.67,5-10.1,6.5a45,45,0,0,1-6.75,2.31,170.22,170.22,0,0,0-18.57,3.72l.18-.14a22.07,22.07,0,0,0,2.65-2.45c8-3.19,16.81-9.25,16.62-18.78.09-.66-.07-1-.61-1-9.86,1.59-13.22,10.23-16.9,18.51-.64.63-1.23,1.35-1.86,1.93-1.08,1-2.27,1.82-3.36,2.78l-1.51.41a155.72,155.72,0,0,0-32.81,13.71c.77-.81,1.54-1.62,2.28-2.45a77.66,77.66,0,0,0,6.61-8.16l.4-.14a11.78,11.78,0,0,0,3-2.12,17.08,17.08,0,0,0,2.34-2.5,18.36,18.36,0,0,0,3-5.85,25.29,25.29,0,0,0,1-6.54c0-1.12,0-2.24-.06-3.37q-.06-.84-.15-1.68a23,23,0,0,0-.57-3.77c-.12-.42-.18-1.07-.75-1.35s-6.33,9.09-8.24,13.57a25.13,25.13,0,0,0-2,7,16.65,16.65,0,0,0,0,3.58,10.86,10.86,0,0,0,.29,1.82,4.47,4.47,0,0,0,.32,1,1,1,0,0,0,.3.35l.07,0a80.91,80.91,0,0,1-6.2,7.57c-1.48,1.66-3,3.25-4.61,4.8q-2.46,1.46-4.87,3a19.7,19.7,0,0,0,1.29-2.33,12.17,12.17,0,0,0,3.41-2.27,14.19,14.19,0,0,0,3.7-7.06,18.5,18.5,0,0,0,.3-5.17,24.15,24.15,0,0,0-.34-2.59q-.12-.64-.27-1.28a16.3,16.3,0,0,0-.8-2.84c-.13-.31-.24-.8-.74-1a.88.88,0,0,0-1,.33l-.1.26c-1.41,3.64-3.37,7.17-4.58,10.85a18.83,18.83,0,0,0-1.06,5.59,11.93,11.93,0,0,0,.27,2.77,10,10,0,0,0,.28,1,21.45,21.45,0,0,1-3.49,5.76A133,133,0,0,0,475.56,248c-.67.92,1.14,1.42,1.9.45.63-.8,7.76-12.12,25-16.57,6.9,4.6,14.77,1.07,21.54-2.18a.35.35,0,0,0,.18-.14.43.43,0,0,0,0-.17c.07-1.13-4.4-2.47-4.93-2.63a24.89,24.89,0,0,0-6.39-1.16,12.74,12.74,0,0,0-10.95,4.77,1.3,1.3,0,0,0-.31.42,29.57,29.57,0,0,0-12.38,4.7,142.76,142.76,0,0,1,26.11-20.39A151.46,151.46,0,0,1,541,202.69a18.88,18.88,0,0,1,14.17,3.39c2,5.9,5.78,9.86,10,11.77a20,20,0,0,0,6.57,1.64c.56,0,5.25.48,5.38-1.06a.88.88,0,0,0,0-.25.66.66,0,0,0-.15-.28c-6.36-8-13.82-16.92-21.78-13.41l-.08,0a21.14,21.14,0,0,0-9-3.67,167.61,167.61,0,0,1,44.25-8.33l-.19.07.13.09a2.49,2.49,0,0,0,.51.79c5,5.45,11.44,11.35,18.87,13,.56.12,1-.21.51-1.36-2.5-5.74-7.19-9.45-12.72-11.66,0-.07-2.18-.58-4-1,3-.1,5.93-.16,8.89-.11q3.79.06,7.61.27,3.54,1.11,7,2.37a46.07,46.07,0,0,1,10.22,7.09c2.76,2.54,5.79,5.79,7.44,9.43a.81.81,0,0,0-.21.41c-1.69,7.76,1.24,16.06,4.35,22.85.87,1.78,1.43.69,1.65-.07,2.62-9,1.62-16.79-4.45-22.78a3.07,3.07,0,0,0-.3-.26c-1.53-3.67-4.44-7-7.17-9.56a47.06,47.06,0,0,0-6.32-5.07l.56.23A104.49,104.49,0,0,1,647.14,212a.81.81,0,0,0-.21.51,22,22,0,0,0,1.93,11.31,38.48,38.48,0,0,0,6.52,9.83c1,1.19,2.15,2.32,3.29,3.42q.82.79,1.67,1.55c.49.44,1.08,1.18,1.78,1.26a.48.48,0,0,0,.29,0,.54.54,0,0,0,.21-.28,8.65,8.65,0,0,0,.23-3.66c-.08-1.52-.2-3-.39-4.54a35.76,35.76,0,0,0-2.35-9.35c-2.08-4.94-5.85-8.75-11.07-9.93-8.06-8.32-20.29-14.61-33.1-19.11,12.51,1.14,25,3.81,36.59,9.3,14.27,6.79,38.81,27.2,38.75,27.06a54.75,54.75,0,0,1,10.89,15.4c-3,5-2.85,10.55-.54,15.83.46,1.06,4.19,8.69,5.82,9.75a.5.5,0,0,0,.43.11c-.16-.64.36-1.4.62-2a17.5,17.5,0,0,0,1-3.55,30,30,0,0,0,.74-7.56c-.21-5.08-2.32-9.81-6.72-12.55-3.21-7.71-8.49-14.1-14.44-19.89,2.17,1.23,4.29,2.56,6.33,4s4,2.95,5.83,4.56a1.28,1.28,0,0,0,.11.68c3.3,6.85,8.59,12.58,16.32,13.88C718.83,248.27,719,247.79,718.8,247.31ZM715,228.41a35.08,35.08,0,0,0-11.25-4.1C707.89,224.23,712,225.11,715,228.41Zm-2.63-.16c-2.27-.55-4.53-1.13-6.79-1.82-1.22-.38-2.44-.78-3.67-1.13A40.71,40.71,0,0,1,712.39,228.26Zm-2.47.44a99.51,99.51,0,0,1-9.86-2.64C703.36,226.8,706.63,227.82,709.92,228.69Zm4.47,1.59c-5.08.73-10.32-.88-15.24-3.37A55.54,55.54,0,0,0,714.39,230.28Zm-49.6-32.58a31.59,31.59,0,0,0,6-1A15.14,15.14,0,0,1,664.79,197.7Zm8-4.79a39.89,39.89,0,0,0-10.87-.35A18.24,18.24,0,0,1,672.81,192.91Zm-.16,1.28c-4,.14-7.93.21-11.89.19A41.09,41.09,0,0,1,672.65,194.19ZM668,195.79a44.2,44.2,0,0,1-10.45,0C661,196,664.47,196,668,195.79Zm-60.2-10.34a41.91,41.91,0,0,0,12.76-9C617.49,181.2,613.51,185,607.75,185.46Zm2.15-2.82c2.28-2.06,4.59-4.09,7-6,1.31-1,2.66-2,3.94-3.11A49.67,49.67,0,0,1,609.9,182.64Zm1.41-3.17a121.88,121.88,0,0,1,10.19-8.73C618.23,173.79,614.7,176.55,611.31,179.46Zm10-10.52a69,69,0,0,0-15,14.11C609.35,176.69,615,172.23,621.29,168.95Zm-20.63-.87a44.23,44.23,0,0,1-4.64,8.39A35.62,35.62,0,0,1,600.66,168.08Zm2.24-.74c-1.35,4.8-3.46,9.13-7.28,12.22A55.28,55.28,0,0,0,602.9,167.34Zm-40.19,21.57c3.57-3.68,6.84-7.66,10.19-11.55A39.6,39.6,0,0,1,562.71,188.91Zm4.4-1.87a42,42,0,0,0,7.13-9.45A18.14,18.14,0,0,1,567.1,187ZM573,174.77a25.81,25.81,0,0,0-8,6.79A17.35,17.35,0,0,1,573,174.77Zm-1.14,2a140.36,140.36,0,0,0-9.75,11.14C564.8,183.62,567.67,179.64,571.83,176.77Zm-40.18,17.07a59.87,59.87,0,0,0,3.44-9A19.28,19.28,0,0,1,531.65,193.84Zm-2,0c1-3.33,3.35-10.22,4.68-13.45C533.39,183.76,531.06,190.67,529.66,193.88Zm-.74-4.8c.38-1,.82-2,1.3-3a30.5,30.5,0,0,1,2-4.17,26.47,26.47,0,0,1-.85,2.7c-.21.49-.45,1-.66,1.46q-.63,1.55-1.18,3.12t-1,3.16a13.26,13.26,0,0,0-.87,3.12A20.54,20.54,0,0,1,528.92,189.08Zm-11,11.17a14.76,14.76,0,0,1-2.1,7.32A45.79,45.79,0,0,0,517.92,200.25Zm-1-3.34c-.51,2.68-1.87,8.28-2.76,10.92C514.7,205.15,516.09,199.55,516.93,196.91Zm-3.78,7.31c.23-.84.51-1.67.82-2.5a23.77,23.77,0,0,1,1.28-3.44,20,20,0,0,1-.48,2.18c-.13.4-.3.8-.42,1.2q-.39,1.27-.72,2.54c-.08.29-.14.59-.21.89a.73.73,0,0,0-.56.3C512.95,205,513,204.6,513.14,204.22Zm6,24.31c-4.42.19-8.81.79-13.2,1.27A30,30,0,0,1,519.13,228.52Zm-.15,1.13c-3.91,1.1-7.75,1.92-11.78,1.4a.36.36,0,0,0-.1-.17A100.44,100.44,0,0,0,519,229.65Zm-3.81-2.78a31.57,31.57,0,0,0-10,1.86A13.74,13.74,0,0,1,515.18,226.87Zm-10.31,4.83a20.25,20.25,0,0,0,8.69.51,13.6,13.6,0,0,1-8.79-.51Zm53.22-21.87a38.23,38.23,0,0,0,9.64,7.48A16.57,16.57,0,0,1,558.09,209.83Zm3.34,1.12a.67.67,0,0,0-.15-.45c-.13-.17-.27-.32-.4-.48,3.67,2.46,7.34,5,11.08,7.06C568.45,216.13,564.75,213.76,561.43,210.95ZM572,215.49a116.44,116.44,0,0,0-12.4-8C564.09,208.59,568,211.81,572,215.49Zm-5-6.13a18.1,18.1,0,0,0-9.2-3.7C561.21,205.34,564.22,206.9,567.06,209.36Zm29.83-14.53a23.43,23.43,0,0,1,10.44,7.73,59.28,59.28,0,0,0-10.58-7.67Zm9.71,8.82a55.44,55.44,0,0,1-10-7A65.77,65.77,0,0,1,606.61,203.66Zm33.47,25.79a55.28,55.28,0,0,0-2.91-13.92C639.78,219.69,640.37,224.47,640.08,229.45Zm-3.53-10.88A66.41,66.41,0,0,1,638.2,228,63,63,0,0,1,636.55,218.57ZM652,220.72c2.27,3.86,4.7,7.62,6.8,11.57A121.87,121.87,0,0,1,652,220.72Zm4.39,4.5c-1.67-2.6-3.2-5.26-4.69-8a49.67,49.67,0,0,1,7.4,12.18C658.21,228,657.27,226.62,656.37,225.22Zm3.34,1.32a41.91,41.91,0,0,0-9.15-12.64C655.86,216.22,658.39,221.08,659.71,226.53ZM658,233.91c-4.9-5.16-8.77-11.2-9.61-18.22A69,69,0,0,0,658,233.91Zm51,25.85a36.74,36.74,0,0,0-3.31-11.38C708.37,251.63,709.22,255.6,709,259.76Zm-1.45,4.77c-.73-5.1-1.93-10.11-3-15.14C706.48,254,707.89,259.49,707.55,264.52Zm-4.27-14.58a123.37,123.37,0,0,0,2.94,14.54C704.37,259.76,702.88,255.08,703.28,249.95Zm-.65,8.54a15.74,15.74,0,0,1-.31-10.64A23.33,23.33,0,0,0,702.63,258.49Zm2.21-20.88a54.1,54.1,0,0,0,9.89,8.49C710.53,244.41,707.43,241.3,704.85,237.61Zm2.15.1a51.55,51.55,0,0,1,8.57,7.48A61.15,61.15,0,0,1,707,237.71Zm-220.63,54.9a23.63,23.63,0,0,0-4.5-10.53,18,18,0,0,0-7.57-5.67,19.1,19.1,0,0,0-9.2-1.1,24.46,24.46,0,0,0-9.33,3.1,27.92,27.92,0,0,0-8,7,28.94,28.94,0,0,0-5.23,10.53,2.44,2.44,0,0,0,.33,2,1.4,1.4,0,0,0,1.14.6,1.31,1.31,0,0,0,1-.7,2.69,2.69,0,0,0,.1-2.06,29.37,29.37,0,0,1,5.1-9.13,27.53,27.53,0,0,1,7-6.1,19.11,19.11,0,0,1,7.7-2.66,13.17,13.17,0,0,1,7.23,1.13,13.42,13.42,0,0,1,5.6,5.3,22.6,22.6,0,0,1,2.83,9.93q.33,4.27.27,9.2t-.57,10.06q-.5,5.14-1.47,10.27a80.66,80.66,0,0,1-2.47,9.79,55.87,55.87,0,0,1-3.53,8.6,30.09,30.09,0,0,1-4.63,6.73,18.72,18.72,0,0,1-5.73,4.47,13.4,13.4,0,0,1-5.43,1.37,11.22,11.22,0,0,1-1.47-.14,29.24,29.24,0,0,0,2.63-6.92q1.34-5.1,2.37-11.4T462.41,323l1.6-13.26q.77-6.37,1.67-11.63a46.29,46.29,0,0,1,2-8.27,1.54,1.54,0,0,0-.4-1.56,3.3,3.3,0,0,0-1.8-1,4.64,4.64,0,0,0-2.53.2,4.81,4.81,0,0,0-2.47,2.2,23.08,23.08,0,0,0-2.4,5.83,67.43,67.43,0,0,0-1.67,8q-.67,4.4-1.1,9.33t-.77,9.93q-.33,5-.67,9.83t-.77,9a72.76,72.76,0,0,1-1.1,7.3,18.93,18.93,0,0,1-1.27,4,11.32,11.32,0,0,1-2.3-1.92,12.28,12.28,0,0,1-2.37-4,10.85,10.85,0,0,1-.67-4.4,2.42,2.42,0,0,0-.47-1.9,1,1,0,0,0-1.13-.27,2,2,0,0,0-1,1.16,4.07,4.07,0,0,0,0,2.53,16,16,0,0,0,3.94,8.83,13.62,13.62,0,0,0,7.3,4.1,18.14,18.14,0,0,0,9-.6,24.9,24.9,0,0,0,9.13-5.27,31.92,31.92,0,0,0,5.8-6.9,51.11,51.11,0,0,0,4.7-9.56,71.2,71.2,0,0,0,3.27-12,88.43,88.43,0,0,0,1.43-14,85.06,85.06,0,0,0-.17-8.8A68.55,68.55,0,0,0,486.37,292.61Zm37.1,29.06a1.22,1.22,0,0,0-.67.73,28.38,28.38,0,0,1-1.47,2.8,14.33,14.33,0,0,1-2.07,2.7,9.91,9.91,0,0,1-2.86,2,9.65,9.65,0,0,1-3.94.87,17,17,0,0,0,.57-7,6.93,6.93,0,0,0-1.66-3.7,3.53,3.53,0,0,0-2.6-1.1,3.3,3.3,0,0,0-2.23.77,7.34,7.34,0,0,0-2.1,4.76,7.54,7.54,0,0,0,.8,3.63,10.2,10.2,0,0,0,3.56,3.8,17.5,17.5,0,0,1-1.8,3.53,16,16,0,0,1-2.3,2.77,12.05,12.05,0,0,1-2.53,1.86,5.87,5.87,0,0,1-2.43.77,2.6,2.6,0,0,1-2.57-.93,4.83,4.83,0,0,1-.67-2.8,16.19,16.19,0,0,1,.63-3.93q.6-2.2,1.43-4.4t1.7-4.1c.57-1.27,1-2.28,1.33-3a4.47,4.47,0,0,0,.4-2.37,3,3,0,0,0-.9-1.9,3.18,3.18,0,0,0-2.1-.8,6.39,6.39,0,0,0-3.2.93,9.87,9.87,0,0,0-3.13,3.67,18.47,18.47,0,0,0-1.8,5.3,22.55,22.55,0,0,0-.3,5.87,17.25,17.25,0,0,0,1.27,5.4,10.17,10.17,0,0,0,2.9,4,6.84,6.84,0,0,0,4.66,1.46,8.28,8.28,0,0,0,3.73-1.1,16.66,16.66,0,0,0,3.46-2.57,25.68,25.68,0,0,0,2.9-3.3,23.08,23.08,0,0,0,2.1-3.37,15.43,15.43,0,0,0,4.5-.6,11.88,11.88,0,0,0,3.53-1.73,12,12,0,0,0,2.8-2.9,26,26,0,0,0,2.3-4.1,1.78,1.78,0,0,0,0-1.17,1.36,1.36,0,0,0-.53-.7A.84.84,0,0,0,523.47,321.67Zm-13.16,5.1a34.56,34.56,0,0,1-.83,3.37,4,4,0,0,1-2.17-2.1,6.17,6.17,0,0,1-.57-2.83,5.48,5.48,0,0,1,.67-2.47,1.93,1.93,0,0,1,1.53-1.13,1.18,1.18,0,0,1,1.2.6,3.79,3.79,0,0,1,.44,1.83A12.9,12.9,0,0,1,510.31,326.77Zm97.93-26.47a7,7,0,0,0-3.6-.16q.26-2.81.4-6.08t0-6.51a54.3,54.3,0,0,0-.6-6.2,22.73,22.73,0,0,0-1.4-5.2,9.44,9.44,0,0,0-2.4-3.53,4.85,4.85,0,0,0-3.6-1.15,8.08,8.08,0,0,0-5,2.71,29.3,29.3,0,0,0-4.8,6.83A64,64,0,0,0,583,291.17a113.46,113.46,0,0,0-3.33,12.65,64.76,64.76,0,0,0,.73-12.94,51.14,51.14,0,0,0-1.46-9.88,9.36,9.36,0,0,0-2.57-4.55,8,8,0,0,0-4.1-2,12,12,0,0,0-5,.28,18.76,18.76,0,0,0-5.36,2.37,65.18,65.18,0,0,1-7.26,4,26.11,26.11,0,0,1-5.4,1.93,3.91,3.91,0,0,1-3.06-.25c-.63-.46-.71-1.31-.27-2.56.22-.33.26-.58.1-.75a.82.82,0,0,0-.7-.22,2.32,2.32,0,0,0-1,.31,1.51,1.51,0,0,0-.7.84,3.22,3.22,0,0,0,.23,3,4.13,4.13,0,0,0,3.1,1.68,14,14,0,0,0,5.89-.75,35.28,35.28,0,0,0,8.7-4.39q2.27-1.5,4.4-2.62a11,11,0,0,1,3.93-1.31,4.25,4.25,0,0,1,3.17.87,7.44,7.44,0,0,1,2.17,4,20.49,20.49,0,0,1,.47,4.8,59.49,59.49,0,0,1-.4,6.51q-.4,3.59-1.13,7.61t-1.67,8.07a15.84,15.84,0,0,1-3.9-.69,9.12,9.12,0,0,1-3.16-1.74.58.58,0,0,0-.5-.47.91.91,0,0,0-.67.22,1.23,1.23,0,0,0-.4.72,1.18,1.18,0,0,0,.43,1,16.88,16.88,0,0,0,3.43,2.15,11,11,0,0,0,4.16,1q-.73,2.87-1.66,6.73t-2.17,7.8a67.23,67.23,0,0,1-2.83,7.48,21.59,21.59,0,0,1-3.63,5.77,8.37,8.37,0,0,1-4.53,2.71q-2.5.5-5.5-1.68a2.76,2.76,0,0,0-1.7-.62,1.1,1.1,0,0,0-.93.47,1.07,1.07,0,0,0,0,1,1.89,1.89,0,0,0,1.26.9,11.07,11.07,0,0,0,7,2.27,13,13,0,0,0,6.5-2.27,24.76,24.76,0,0,0,5.76-5.58,51.49,51.49,0,0,0,4.87-7.73,69.59,69.59,0,0,0,3.73-8.64,82.37,82.37,0,0,0,2.5-8.35,21.46,21.46,0,0,0,5.27-1.16,39,39,0,0,0,4.26-1.87l4-2.06a21.08,21.08,0,0,1,4.4-1.65q-.53,3.18-1.37,7.17t-1.73,8.45q-.9,4.46-1.77,9.14t-1.43,9.2q-.56,4.52-.73,8.7a44,44,0,0,0,.3,7.64,19.44,19.44,0,0,0,1.7,6,8,8,0,0,0,3.5,3.71,3.28,3.28,0,0,0,2.43.4,5.7,5.7,0,0,0,2.3-1.12,9.37,9.37,0,0,0,1.93-2.12A10.77,10.77,0,0,0,605,358a3.22,3.22,0,0,0,.23-1.78,1.77,1.77,0,0,0-.5-.94.81.81,0,0,0-.74-.19.7.7,0,0,0-.53.4,25.65,25.65,0,0,1-1.37,3.08,8.6,8.6,0,0,1-1.2,1.75,3.37,3.37,0,0,1-1,.78,1.87,1.87,0,0,1-.7.19q-.73,0-1-1.81a28.73,28.73,0,0,1-.17-4.9q.1-3.08.53-7.26t1-8.88q.56-4.71,1.27-9.7t1.37-9.79l1.27-9.13q.6-4.33.93-7.7a7.63,7.63,0,0,1,3.37,0,2.86,2.86,0,0,1,1.83,1.18c.22.17.41.21.57.13a.86.86,0,0,0,.37-.41,1.52,1.52,0,0,0,.13-.65,1.25,1.25,0,0,0-.2-.69A5,5,0,0,0,608.24,300.3Zm-7.9-11.41q-.3,3.21-.77,6.45l-.87,6a27.34,27.34,0,0,0-4.53,1.56L590,304.82q-2.07.94-4.33,1.71a26.29,26.29,0,0,1-5.13,1.16q2.26-8.85,4.4-15.06a89.21,89.21,0,0,1,4.1-10.19,27.71,27.71,0,0,1,3.76-6,7.58,7.58,0,0,1,3.4-2.46,2.54,2.54,0,0,1,2.7.63,6.4,6.4,0,0,1,1.37,3.18,25.51,25.51,0,0,1,.37,5Q600.64,285.68,600.34,288.89Zm-74.17-31.35a.18.18,0,0,0,.07.08.78.78,0,0,0,.41.23.33.33,0,0,0,.34-.21,1.12,1.12,0,0,0,.1-.82,9.23,9.23,0,0,0-1-1.87c-.11-.2-.31-.23-.52-.32a.39.39,0,0,0-.48.4,3.31,3.31,0,0,0,.31.95A6.2,6.2,0,0,1,526.17,257.54Zm-.45,3.77c.26.21.43.18.6-.1l.06-.13a.71.71,0,0,0,0-.73l-1.66-1.93a.48.48,0,0,0-.59-.05c-.08.07-.23.06-.19.22a1.52,1.52,0,0,0,.32,1C524.74,260.18,525.18,260.82,525.73,261.31Zm1.56,6c0-.06-.07-.19-.11-.2a.79.79,0,0,0-1.07-.1,8.78,8.78,0,0,1-1.56,1,.41.41,0,0,0,0,.73l.13.06s0,0,.09,0a.76.76,0,0,0,1,0,7.78,7.78,0,0,0,1.08-.65C527.14,268,527.2,267.59,527.28,267.27Zm.24,4.07c.13.06.52,0,.58-.16s.31-.48.25-.7a3.08,3.08,0,0,1,.27-1.1,7.21,7.21,0,0,1,.15-1,4.2,4.2,0,0,0,.2-1.75l-.06-.23a1,1,0,0,0-.32-.19.22.22,0,0,0-.3.12,3.91,3.91,0,0,0-.36.71c-.31.38,0,1-.37,1.57a1.48,1.48,0,0,1-.25,1.16,2.73,2.73,0,0,0-.08,1.14C527.26,271.12,527.33,271.3,527.52,271.33ZM526,264.22a3,3,0,0,0,1,.49c.13.06.33-.06.4-.23a.69.69,0,0,0-.1-.61,3.41,3.41,0,0,0-1.46-1.33,1.58,1.58,0,0,1-.63-.42,1.65,1.65,0,0,0-.52-.32c-.47-.21-.67-.34-1-.15-.06,0-.14.09-.11.15a1.42,1.42,0,0,0,.45.86C524.71,263.21,525.44,263.63,526,264.22Zm-5.53,3.06a10,10,0,0,1-1.37,0,.55.55,0,0,0-.6.35c0,.19,0,.4.11.46a2.69,2.69,0,0,0,1.44.42,1.22,1.22,0,0,1,.86,0,1,1,0,0,0,.15-.34C521.2,267.71,520.95,267.24,520.47,267.29Zm8-13.08a.47.47,0,0,0,.59,0c.08-.07.23-.06.19-.22a1.46,1.46,0,0,1,.26-1,1,1,0,0,0-.08-1.1.72.72,0,0,0-.27-.21c-.13-.06-.23.06-.28.18s-.27.5-.39.8l0,0a5.8,5.8,0,0,0-.35.82A.6.6,0,0,0,528.47,254.21ZM525,272l-.5,1.16a.84.84,0,0,0-.06.38c.2,1,.65,1.2,1.44.67.1-.11.26-.25.27-.39a2.72,2.72,0,0,1,.22-1.22,1.26,1.26,0,0,0-.39-1.34.32.32,0,0,0-.36,0C525.38,271.48,525.05,271.64,525,272Zm13-13.25a1.17,1.17,0,0,0,1-.39l.41-.95a1.13,1.13,0,0,0-.25-1.18.43.43,0,0,0-.24-.05c-.18.08-.39.09-.5.34l-.35.82,0,0-.35.82C537.56,258.36,537.75,258.75,537.94,258.77Zm.67,6.75c.36,0,.39-.19.5-.45s0-.34-.08-.54a.86.86,0,0,0-.86-.37c-.27,0-.57-.09-.84,0s-.37,0-.38.29a.7.7,0,0,0,.29.74l.26.11A1.62,1.62,0,0,0,538.61,265.52Zm1.53-2.4a3.28,3.28,0,0,0,1.81.17c.15,0,.4-.34.31-.48s-.22-.55-.58-.55-1-.15-1.43-.21a.36.36,0,0,0-.23,0,.77.77,0,0,0-.55.32.72.72,0,0,0,.29.63Zm-3.9,3.87a.6.6,0,0,0-.16.13c.1.35.15.73.49.87l.73.32a3.68,3.68,0,0,0,1.32.36c.21.34.4.12.56,0s0-.61-.23-.76l-2.24-1A.5.5,0,0,0,536.24,267Zm-15.33,1.5h0Zm14.86-12.13c.24-.2.67-.27.58-.76a4.41,4.41,0,0,0-.23-1.47c-.12-.3-.23-.41-.44-.39s-.41.13-.51.34l-.06.13c-.17.28,0,.73-.36,1a1,1,0,0,0,.46,1.06C535.37,256.36,535.66,256.53,535.77,256.37Zm-1,4.71a.76.76,0,0,0,.3-.23,3.74,3.74,0,0,0,.88-1.35,1.28,1.28,0,0,1,.4-.59,1.2,1.2,0,0,0,.1-.92.44.44,0,0,0-.27-.21c-.39-.17-.53-.18-.67.12s-.49.55-.68.87a2,2,0,0,1-.65.94c-.08.07-.13.3-.19.43A.76.76,0,0,0,534.77,261.08Zm-2.3-7.9a1.11,1.11,0,0,0-.33-1,.29.29,0,0,0-.35.1.68.68,0,0,0,.52,1S532.5,253.24,532.47,253.18Zm-1.17,8.65c.31.09.61-.14.82-.61l0-.34.13-1.37c0-.3-.31-.95-.54-1s-.33.06-.47.15a.51.51,0,0,0-.15.34,1.37,1.37,0,0,1-.12.87c-.25.34-.1.82-.22,1.22A.58.58,0,0,0,531.3,261.82Zm1.21-4.26a.31.31,0,0,0,.46,0,4.35,4.35,0,0,0,.86-1.05c.25-.35.1-.72.06-1.09a.47.47,0,0,0-.36-.46c-.23,0-.48.05-.48.3a.94.94,0,0,0,0,.34.63.63,0,0,1-.29.69,1.27,1.27,0,0,0-.42.74A.54.54,0,0,0,532.51,257.57Zm-.5,4.72.11.35c.1.35.24.62.7.51a3.67,3.67,0,0,0,2.05-.29c.43-.17.49-.55.26-1-.07-.08-.13-.16-.2-.14A9.61,9.61,0,0,0,532,262.28Zm6.64-.66c.1-.11.11-.26.19-.33s.38-.19.31-.37a1.38,1.38,0,0,0-.34-.5s0-.06-.07-.08-.06,0-.12,0a9.74,9.74,0,0,0-2,1.43.36.36,0,0,0-.1.47.5.5,0,0,0,.49.27A3,3,0,0,0,538.65,261.62Zm-5.18,7a5,5,0,0,1,1.32,1.07c.1.14.53.08.66-.12a.42.42,0,0,0,.09-.32,1,1,0,0,0-.52-.68c-.52-.32-.91-.85-1.25-1a4.21,4.21,0,0,1-.61-.21.22.22,0,0,0-.31.12.35.35,0,0,0-.05.23A1.64,1.64,0,0,0,533.47,268.6Zm-3-10c-.12-.56.25-1.06.17-1.6.17-.29-.06-.59,0-.86,0-.09-.05-.23-.1-.35s-.35-.36-.52-.32-.24.2-.35.46a13.72,13.72,0,0,0-.29,2.57.57.57,0,0,0,.49.51C530.08,259,530.49,258.73,530.46,258.57Zm4.43,7.19c0-.37-.27-.67-.63-.67-.67,0-1.24-.08-1.88,0-.31,0-.4.34-.63.39,0,.06,0,.15,0,.21a.46.46,0,0,0,.44.39,15.61,15.61,0,0,0,2.22.14A.46.46,0,0,0,534.9,265.75Zm-4.51,5.79c0-.06-.11-.1-.2-.13a.31.31,0,0,0-.28.18l-.06.13a1,1,0,0,0-.11.61c.2.85.33,1.71.47,2.59a3,3,0,0,0,.31.69.47.47,0,0,0,.27.22c.13.05.25.11.29-.08a.42.42,0,0,0,0-.36c-.15-1.08-.27-2.2-.44-3.24A1.51,1.51,0,0,0,530.39,271.54Zm1-3.74a2.3,2.3,0,0,0-.78-1.25.32.32,0,0,0-.49.09.44.44,0,0,0-.05.49c.29.84.66,1.65,1,2.51a.53.53,0,0,0,.25.26c.08,0,.27.07.35,0s.18-.18.21-.26a.59.59,0,0,0,0-.38C531.66,268.79,531.51,268.32,531.37,267.8Zm7.22,2.49c-.11-.1-.29,0-.37.15a.63.63,0,0,0,.11.81c.5.27.78.79,1.12.83a4.61,4.61,0,0,0,.59.16c.08,0,.16,0,.12-.15s0-.15-.06-.23A4,4,0,0,0,538.59,270.29Zm2.65-3.33,0,0-.6-.26c-.15,0-.25,0-.3.13s-.08.17-.05.23a2.48,2.48,0,0,0,.21.45c.13.16.36.21.5.37a.72.72,0,0,0,1,.17c.13-.05.4-.09.3-.33a.63.63,0,0,0-.3-.38A4.82,4.82,0,0,0,541.24,267Zm-5.09,4.16c-.1-.14-.19-.38-.46-.24s-.49.45-.42.73a1.86,1.86,0,0,0,.44.75,7.13,7.13,0,0,0,1.28,1.16,1.46,1.46,0,0,1,.46.35,1,1,0,0,0,.38-.19c.13,0,.12-.15.09-.32a1.92,1.92,0,0,0-.64-.88A9.62,9.62,0,0,1,536.15,271.12Zm-2.43.69a1,1,0,0,0-.33-.19c-.1,0-.27-.07-.35,0a1.55,1.55,0,0,0-.23.41c0,.09,0,.17.05.23A9.6,9.6,0,0,0,534.4,274l.17.08c.14-.09.31-.12.45-.21a.3.3,0,0,0,0-.44A14.36,14.36,0,0,0,533.73,271.81Zm-9.45-7.11c-.35-.5-.7-.86-1.38-.59a5,5,0,0,1-1,.19c-.29.08-.22-.1-.21-.24a.73.73,0,0,0-.58-.76c-.52-.22-1-.4-1.5-.65a1.17,1.17,0,0,0-1,0c-.21.12-.3.33-.12.51a11.93,11.93,0,0,0,.95.76,3.09,3.09,0,0,0,.6.26,3.15,3.15,0,0,1,.59.3c.15.12.43-.17.57.09a1.87,1.87,0,0,1,0,.48.45.45,0,0,0,.21.34,1.68,1.68,0,0,0,.81.25l1.65-.05A.68.68,0,0,0,524.27,264.7Zm-1.11-2.86s.11-.15.09-.22a1,1,0,0,0-.58-1c-.43-.19-.88-.32-1.31-.51s-.57,0-.84-.06a.34.34,0,0,0-.18.18.84.84,0,0,0,.44,1,3.22,3.22,0,0,1,1,.62C522,262.16,522.7,262.09,523.16,261.84Zm-.76-3.58a1.26,1.26,0,0,0,.33.19c.3.13.45.14.56,0a.52.52,0,0,0,.12-.51,1.45,1.45,0,0,0-.34-.5c-.61-.61-1.28-1.16-1.9-1.73a1.36,1.36,0,0,0-.72-.46.17.17,0,0,0-.23.05.21.21,0,0,0-.09.22,1.78,1.78,0,0,0,.28.53Zm-2,11.79a.89.89,0,0,0,.62.32,4,4,0,0,0,1.9-.86.79.79,0,0,0,.23-1l-.15-.37a.64.64,0,0,0-.65-.27,2.29,2.29,0,0,0-1.12.59.47.47,0,0,1-.35.11l0,0a3.2,3.2,0,0,1-.43.42C520.08,269.26,520.08,269.61,520.4,270.05Zm8-9.88a2.08,2.08,0,0,0-.55-.85.29.29,0,0,0-.19,0c-.12.05-.26.14-.26.25a5.12,5.12,0,0,0,.15,1.08c.18.89.49,1.69.68,2.58a1.23,1.23,0,0,0,.34.5.41.41,0,0,0,.59-.06l.13-.3a.44.44,0,0,0,0-.4C529,262,528.7,261.11,528.4,260.17Zm-6,13.09a4.37,4.37,0,0,0,1.3-.76,1,1,0,0,0,.36-1.07c0-.21-.21-.24-.38-.31a.29.29,0,0,0-.32.16,1.52,1.52,0,0,1-.87.85,1.9,1.9,0,0,0-.63.39c-.06,0-.1.11-.16.13l0,.17A.64.64,0,0,0,522.42,273.26Zm-4.67-12a3.84,3.84,0,0,0,1.65.3c.29,0,.57-.37.53-.64a.72.72,0,0,0-.56-.59.44.44,0,0,0-.25,0,2.56,2.56,0,0,1-1.37-.13c-.13-.06-.37.15-.4.34a.66.66,0,0,0,.16.58A1.91,1.91,0,0,0,517.76,261.3Zm10.57,11.6a.7.7,0,0,0-.32.52,2.41,2.41,0,0,0,0,.87,1.26,1.26,0,0,1-.18.78c.26.21.1.35,0,.59a1.91,1.91,0,0,0,.42.23.26.26,0,0,0,.35-.11,2.36,2.36,0,0,0,.1-2.49C528.63,273,528.45,272.85,528.32,272.9Zm-.49,2.22a.83.83,0,0,1-.24-.76c0-.21-.18-.28-.35-.35a.32.32,0,0,0-.33.06,1.09,1.09,0,0,0-.19.32c-.38,1-.8,2-1.23,3a1,1,0,0,0-.11.61.91.91,0,0,1-.15.59l-2.52,5.88c-.24.55-.74.9-.89,1.5a4.71,4.71,0,0,1-.69,1.48,5.84,5.84,0,0,0-.81,1.28c-.2.47-.68.77-.84,1.26-.49.2-.45.93-1,1.1a2.64,2.64,0,0,1-.74,1c-.29.33-.48.66-1,.68-.15,0-.24.2-.23.41s.11.2.18.28a.67.67,0,0,0,.82,0,12.47,12.47,0,0,0,1.84-1.8c.51-.6,1-1.15,1.41-1.74a7.51,7.51,0,0,0,1.16-1.64c.14-.45.65-.69.75-1.15a2.86,2.86,0,0,1,.54-1.14,6.87,6.87,0,0,0,1.26-2.45c.68-1.48,1.33-3,1.92-4.47.15-.34.36-.61.26-1,.23-.66.49-1.26.72-1.92a.56.56,0,0,0,.48-.51C527.6,275.53,527.74,275.34,527.83,275.12Zm-9.72-9.45,0,0a5.33,5.33,0,0,0,.82.35.61.61,0,0,0,.71-.36.7.7,0,0,0-.21-.8,3,3,0,0,0-1.22-.37,1.29,1.29,0,0,1-.59-.15c-.17-.08-.4-.12-.51.13a.58.58,0,0,0,.19.85A6,6,0,0,0,518.12,265.67Zm282,36.11a4.25,4.25,0,0,0-2.46.6,3,3,0,0,0-1.11.9,1.11,1.11,0,0,1-.25.25,1.41,1.41,0,0,0-.5.67,1,1,0,0,1-.34.36,1.57,1.57,0,0,0-.55.65.55.55,0,0,1-.09.13,5.11,5.11,0,0,0-.12-.5l-.07-.25a1.09,1.09,0,0,0-.72-.64,1.76,1.76,0,0,0-1.82.55c-.21.33-.42.68-.61,1s-.39.67-.61,1a1.15,1.15,0,0,0-.13.59c0,.14,0,.21,0,.24l-.09.09v.13c0,.53-.1,1.08-.1,1.6a2,2,0,0,0,.61,1.47l.06,0-2.61,4.49v-.27c0-.18,0-.36,0-.55a3.83,3.83,0,0,0-.25-1.29,1.36,1.36,0,0,0-.93-.91,1.39,1.39,0,0,0-1.27.38,5.8,5.8,0,0,0-1.86,2.2,8,8,0,0,0-.54,1.86,2.33,2.33,0,0,0,0,.37c0,.08,0,.15,0,.19a3.35,3.35,0,0,0,.78,2.84l0,0a9.88,9.88,0,0,1-2.27,2.78,9.12,9.12,0,0,1-5.33,2,19.65,19.65,0,0,1-6.5-.84q-3.5-1-7.26-2.23t-7.66-2.26a25.66,25.66,0,0,0-7.73-.87,18.22,18.22,0,0,0-7.43,2,19,19,0,0,0-6.73,6.2,31.36,31.36,0,0,1-4.33,5,4.56,4.56,0,0,1-3.27,1.43c-.49,0-.79-.4-.9-1.06a7.73,7.73,0,0,1,0-2.26,24.24,24.24,0,0,1,.44-2.4c.17-.76.31-1.27.4-1.54a23.36,23.36,0,0,0,5.43-5.33,11.29,11.29,0,0,0,2.1-4.87,4.68,4.68,0,0,0-.8-3.57,4.07,4.07,0,0,0-3.27-1.43,9.68,9.68,0,0,0-6,1.77,13.81,13.81,0,0,0-4.1,4.6,17,17,0,0,0-1.32,3.13c-1.32,2.28-2.66,4.62-4,7.07q-2.23,4-4.2,7.23t-3.5,5.33c-1,1.37-1.8,2-2.34,1.86a.93.93,0,0,1-.86-1.06,5.94,5.94,0,0,1,.73-2.17q.67-1.3,1.67-2.93t1.9-3.33a18.12,18.12,0,0,0,1.4-3.4,6.88,6.88,0,0,0,.23-3.17,3.31,3.31,0,0,0-1-1.63,12,12,0,0,0-2.07-1.54c-.84-.51-1.8-1-2.86-1.53s-2.18-1.08-3.33-1.7a25.85,25.85,0,0,0,3.2-5.86,17.76,17.76,0,0,0,1.13-4.9,9.13,9.13,0,0,0-.43-3.7,5.25,5.25,0,0,0-1.57-2.33,3.34,3.34,0,0,0-2.23-.77,4.13,4.13,0,0,0-2.43,1,9.08,9.08,0,0,0-2.67,3.94,14.27,14.27,0,0,0-.93,5.49,12.77,12.77,0,0,0,1.4,5.53,8.05,8.05,0,0,0,1,1.37s-.07,0-.09.06q-1.33,2.73-3.3,6.4t-4.26,7.16a54,54,0,0,1-4.73,6.23,11.39,11.39,0,0,1-4.7,3.47q-.87.26-1.17-.84a12.2,12.2,0,0,1-.27-3.2c0-1.4.14-3.06.36-5s.49-3.93.8-6.07.64-4.31,1-6.53.67-4.33.93-6.33a2.06,2.06,0,0,0-.67-2.1,2.67,2.67,0,0,0-2-.47,4.85,4.85,0,0,0-2.33,1.1,4.56,4.56,0,0,0-1.57,2.6q-1.53,4.13-3.13,7.77t-3,6.29a37.34,37.34,0,0,1-2.46,4.16q-1.07,1.5-1.54,1.37c-.93-.27-1.43-1.17-1.5-2.7a23.49,23.49,0,0,1,.5-5.4q.6-3.1,1.56-6.43t1.77-5.73q.46-1.53-.37-2.07a2.94,2.94,0,0,0-2.2-.27,8,8,0,0,0-2.8,1.2,5.23,5.23,0,0,0-2,2.33s-.13.55-.4,1.53c-.16.6-.33,1.33-.49,2.11,0,.09-.14.11-.17.22a76.24,76.24,0,0,1-4.37,9.9,71,71,0,0,1-4.76,7.83,29.32,29.32,0,0,1-4.2,4.9q-1.86,1.63-2.73,1t-1.13-3.13a32.34,32.34,0,0,1,.1-6.33,83.59,83.59,0,0,1,1.4-8.86q1-5,2.7-10.73a15.76,15.76,0,0,0,2.93-3.17,66.87,66.87,0,0,0,4-5.86q2.07-3.37,3.93-7.2a39,39,0,0,0,2.74-7.17,13.2,13.2,0,0,0,.4-5.73,3.52,3.52,0,0,0-3-2.93,8.36,8.36,0,0,0-2.3-.1,7,7,0,0,0-3,1,14.07,14.07,0,0,0-3.37,3,26.82,26.82,0,0,0-3.57,5.7,71.3,71.3,0,0,0-3.6,9.2,122.6,122.6,0,0,0-3.4,13.46,78.27,78.27,0,0,0-3.37,7.3q-1.63,4-3.17,8.23t-3,8.16q-1.43,4-2.83,7.13a34.86,34.86,0,0,1-2.74,5.17A4.36,4.36,0,0,1,619,353c-.89.13-1.53-.34-1.93-1.43a13.76,13.76,0,0,1-.63-4.47,44.4,44.4,0,0,1,.5-6.63q.53-3.79,1.43-8t2.1-8.43q1.2-4.26,2.6-8.06a35,35,0,0,0,2.73-3.63q1.6-2.36,3.4-5.33t3.6-6.3q1.8-3.33,3.3-6.66t2.53-6.4a28.71,28.71,0,0,0,1.33-5.43,7,7,0,0,0-.36-3.8,2.82,2.82,0,0,0-2.6-1.56,5.54,5.54,0,0,0-2.7.83,15.43,15.43,0,0,0-3.76,3.1,41.55,41.55,0,0,0-4.4,5.8,64.31,64.31,0,0,0-4.66,8.86A112.65,112.65,0,0,0,617,307.93a161.61,161.61,0,0,0-4,16.43q-.33,1.66-.83,4.6t-.8,6.37a65.41,65.41,0,0,0-.23,7,27.11,27.11,0,0,0,.83,6.43,11.11,11.11,0,0,0,2.43,4.73,6.09,6.09,0,0,0,4.6,1.9,4.25,4.25,0,0,0,3-1.5,19.38,19.38,0,0,0,2.9-4.07,57.47,57.47,0,0,0,2.83-5.93q1.4-3.37,2.74-7l2.66-7.26q1.33-3.63,2.66-6.83a47.65,47.65,0,0,0-.93,9.46,29.72,29.72,0,0,0,.83,7,12.66,12.66,0,0,0,2.13,4.63,6,6,0,0,0,3,2.2,4.21,4.21,0,0,0,3.33-.53,15.36,15.36,0,0,0,3.66-3,38.33,38.33,0,0,0,3.73-4.76q1.86-2.77,3.5-5.8c.84-1.55,1.55-3.12,2.26-4.69a19.85,19.85,0,0,0,.27,3.82,10.72,10.72,0,0,0,1.64,4.13,5.62,5.62,0,0,0,3.6,2.3,3.33,3.33,0,0,0,2.6-.6,10.62,10.62,0,0,0,2.43-2.43A29.8,29.8,0,0,0,670,331q1.06-2,2-3.87t1.73-3.46a13.66,13.66,0,0,1,1.4-2.3,83.07,83.07,0,0,0-1.7,9.26,32.18,32.18,0,0,0-.17,7.23,9.82,9.82,0,0,0,1.6,4.77,4.37,4.37,0,0,0,3.6,1.8,6.59,6.59,0,0,0,3.54-1,17.16,17.16,0,0,0,3.6-2.87,34.4,34.4,0,0,0,3.53-4.3q1.73-2.46,3.37-5.27t3-5.76c.77-1.63,1.44-3.21,2.09-4.76a10,10,0,0,0,1.95,1.26,7.35,7.35,0,0,0,.6.43,13,13,0,0,1,2,1.77q.43.46.37.67-.67,1.94-1.53,4.07T699.42,333a24,24,0,0,0-1.1,4.1,7.89,7.89,0,0,0,.1,3.5,4.49,4.49,0,0,0,1.9,2.53,8.87,8.87,0,0,0,4.33,1.2,3.7,3.7,0,0,0,2.73-1.57,32.81,32.81,0,0,0,3.33-4.7q1.87-3.07,4.23-7.47l2.23-4.12a12.59,12.59,0,0,0,.47,2.78,9.35,9.35,0,0,0,2.87,4.53,7.77,7.77,0,0,0,5.6,1.67,5.73,5.73,0,0,0,2.7-1,17.35,17.35,0,0,0,2.83-2.26q1.4-1.37,2.73-2.9t2.34-2.8a17.11,17.11,0,0,1,3.16-3,12.3,12.3,0,0,1,4.07-1.93,15.56,15.56,0,0,1,5.2-.43,25.62,25.62,0,0,1,6.43,1.4l6.16,2.13a58.14,58.14,0,0,0,6.46,1.86,35,35,0,0,0,6.29.87,15.16,15.16,0,0,0,5.73-.8A11.62,11.62,0,0,0,785,323.4a12.8,12.8,0,0,0,2-3.09c.06-.07.13-.12.18-.19l.21-.28.07-.1.62.09a.8.8,0,0,1,.18.1l.22.13.11.06a1.11,1.11,0,0,0,.53.17.89.89,0,0,1,.45.12l.31.12a2.4,2.4,0,0,0,.61.11,12.71,12.71,0,0,0,2.63.14,4.41,4.41,0,0,0,2.14-.7,1,1,0,0,0,.27-1.24,2.89,2.89,0,0,0-.86-1,6.55,6.55,0,0,0-5.06-1l.93-1.56c.36-.61.73-1.22,1-1.83h.09a4.34,4.34,0,0,0,2.25,0,8.46,8.46,0,0,0,2.89-1.37l.1-.09a1,1,0,0,0,.23-.25,1.16,1.16,0,0,0,.19-1.36,1.22,1.22,0,0,0-1.2-.66,7.53,7.53,0,0,0-2.66.51l.22-.36c.28-.46.55-.92.8-1.41a1.88,1.88,0,0,1,.4-.49,2.59,2.59,0,0,0,.54-.69,9.79,9.79,0,0,1,.79-1.27l.11-.08a1.67,1.67,0,0,0,.22-.17,1.39,1.39,0,0,0,.86,0l.09,0a8.83,8.83,0,0,0,3.34-1.59l.1,0,0-.07a1.51,1.51,0,0,0,.56-1.54A1.65,1.65,0,0,0,800.16,301.78Zm-73.81,18a22.34,22.34,0,0,1,.93-3.2,14.65,14.65,0,0,1,1.23-2.57q.67-1.06,1.4-1.06c.84,0,1.32.3,1.43,1a5.27,5.27,0,0,1-.47,2.66,13.79,13.79,0,0,1-2,3.27,13.46,13.46,0,0,1-3.13,2.9C725.91,321.94,726.1,320.93,726.34,319.79ZM646.86,302a83.31,83.31,0,0,1,2.83-8.8,36.35,36.35,0,0,1,3.1-6.36q1.57-2.43,2.77-2.3t1.33,1.53a10.55,10.55,0,0,1-.3,3.63,32.69,32.69,0,0,1-1.63,5q-1.13,2.8-2.67,5.76a61.67,61.67,0,0,1-3.43,5.83,52.13,52.13,0,0,1-3.9,5.2A73.07,73.07,0,0,1,646.86,302Zm-22.16,5.3q1-3.17,2.33-7t2.9-7.73q1.57-3.93,3-7a33.69,33.69,0,0,1,2.74-4.9q1.26-1.8,2-1.33t.27,2.57a34.69,34.69,0,0,1-1.53,5.3q-1.13,3.14-2.8,6.8t-3.5,7.17q-1.83,3.5-3.63,6.43a30.21,30.21,0,0,1-3.2,4.47Q623.7,310.5,624.7,307.33Zm73.42,9.36a6.15,6.15,0,0,1-.77-2.5,13.86,13.86,0,0,1,.6-5.8,4,4,0,0,1,1.16-1.9c.53-.49,1-.69,1.33-.6a1.16,1.16,0,0,1,.77.9,5.36,5.36,0,0,1,.13,2,14.63,14.63,0,0,1-.47,2.57,15.43,15.43,0,0,1-1.06,2.8A11.55,11.55,0,0,1,698.12,316.7Z"/></svg>