<svg id="Layer_1" data-name="Layer 1" xmlns="http://www.w3.org/2000/svg" viewBox="0 0 1200 650"><defs><style>.cls-1{fill:#108bcc;}</style></defs><title>Logos</title><path class="cls-1" d="M421.13,317.17a1.63,1.63,0,0,0-1.79-1.79h-3.42v-4.8h5.7c3.42,0,5,1.38,5,4.64V318a28.92,28.92,0,0,1-.17,3.09h.17c2-6.19,6.51-10.9,12.94-10.9a10.91,10.91,0,0,1,2.19.25v5.45a13.67,13.67,0,0,0-2-.17c-5.78,0-10.09,4.56-11.88,10.58a27,27,0,0,0-1.14,8v17.25h-5.53Z"/><path class="cls-1" d="M470.05,326.29h2.28v-.49c0-8.55-3.09-11.55-10.58-11.55-2,0-8,.57-8,3.58v2.61h-5.29v-3.91c0-5.69,9.76-6.91,13.34-6.91,12.94,0,16,6.91,16,15.7v19.61a1.6,1.6,0,0,0,1.79,1.79h3.42v4.8h-5.62c-3.49,0-4.88-1.54-4.88-4.88,0-1.79.08-3,.08-3h-.16a14.49,14.49,0,0,1-13.59,8.87c-6.83,0-13.91-4-13.91-12.13C445,326.77,463,326.29,470.05,326.29ZM459.8,347.77c7.81,0,12.53-8.13,12.53-15.21v-1.87H470c-6.43,0-19.29.17-19.29,9.36C450.68,343.86,453.69,347.77,459.8,347.77Z"/><path class="cls-1" d="M490.12,300.9a1.63,1.63,0,0,0-1.79-1.79h-3.42v-4.8h5.78c3.5,0,5,1.46,5,5v45.65a1.59,1.59,0,0,0,1.79,1.79h3.42v4.8h-5.78c-3.5,0-5-1.46-5-5Z"/><path class="cls-1" d="M508.36,300.9a1.63,1.63,0,0,0-1.79-1.79h-3.42v-4.8h5.78c3.5,0,5,1.46,5,5v45.65a1.59,1.59,0,0,0,1.79,1.79h3.42v4.8h-5.78c-3.5,0-5-1.46-5-5Z"/><path class="cls-1" d="M528.76,363.63c3.58,0,6-2.93,7.57-6.67l2.44-5.61-14.4-34.1a2.63,2.63,0,0,0-2.85-1.87h-.81v-4.8h2.52c3.66,0,4.8.81,6.26,4.48L540,340.61c.81,2,1.46,4.4,1.46,4.4h.17a37,37,0,0,1,1.38-4.4l10.09-25.55c1.38-3.66,2.6-4.48,6.34-4.48H562v4.8h-.82a2.58,2.58,0,0,0-2.85,1.87l-17.66,42.8c-2.11,5.21-6.27,8.54-11.72,8.54a11.93,11.93,0,0,1-8.87-4l2.6-4.07A8.73,8.73,0,0,0,528.76,363.63Z"/><path class="cls-1" d="M572.78,320.59A1.59,1.59,0,0,0,571,318.8h-3.26V310h9.44c3.66,0,5.53,1.54,5.53,5v2.44a19.43,19.43,0,0,1-.16,2.6h.16c1.87-5.94,6.84-10.66,13.19-10.66a12.89,12.89,0,0,1,1.87.17v10.17a18.33,18.33,0,0,0-2.52-.16,11.68,11.68,0,0,0-11.31,8.71,25.08,25.08,0,0,0-.89,6.75v16.44H572.78Z"/><path class="cls-1" d="M624.95,325.47h1.3v-.33c0-5.94-2.36-8.14-7.65-8.14-1.87,0-5.54.49-5.54,2.77V322h-9.6v-4.39c0-7.73,10.9-8.55,15.22-8.55,13.83,0,17.9,7.25,17.9,16.52V341a1.63,1.63,0,0,0,1.79,1.79h3.25v8.71h-9.28c-3.83,0-5.29-2.11-5.29-4.56,0-1.06.08-1.79.08-1.79H627a13.51,13.51,0,0,1-12.53,7.32c-7.4,0-14.15-4.64-14.15-12.94C600.3,326.53,618.2,325.47,624.95,325.47Zm-8,19c5.53,0,9.44-5.86,9.44-10.9v-1h-1.79c-5.37,0-13.91.73-13.91,6.51C610.71,341.83,612.74,344.43,617,344.43Z"/><path class="cls-1" d="M648.78,320.59a1.6,1.6,0,0,0-1.8-1.79h-3.25V310h9.84c3.82,0,5.45,1.71,5.45,5.53V341a1.63,1.63,0,0,0,1.8,1.79h3.25v8.71h-9.84c-3.82,0-5.45-1.63-5.45-5.53Zm.48-26.85h8.95v9.52h-8.95Z"/><path class="cls-1" d="M672.87,338.33s5.29,6.1,12.37,6.1c3.17,0,5.61-1.3,5.61-4.07,0-5.86-21.89-5.77-21.89-19.2,0-8.3,7.49-12.12,16.11-12.12,5.62,0,14.56,1.87,14.56,8.63V322h-9.11v-2c0-2-2.93-2.93-5.21-2.93-3.67,0-6.19,1.3-6.19,3.74,0,6.51,22.05,5.21,22.05,19,0,7.81-6.91,12.7-15.95,12.7a22.76,22.76,0,0,1-17.25-7.4Z"/><path class="cls-1" d="M727,309c11.88,0,18.39,8.71,18.39,19.69,0,1.22-.24,3.82-.24,3.82H716.46c.81,7.32,6.18,11.14,12.45,11.14,6.67,0,11.64-4.64,11.64-4.64l4.32,7.16a25.25,25.25,0,0,1-16.68,6.27c-13.75,0-22.3-9.93-22.3-21.73C705.88,318,714.5,309,727,309Zm7.81,16.36c-.16-5-3.58-8.38-7.81-8.38-5.29,0-9,3.17-10.17,8.38Z"/><path class="cls-1" d="M754.4,320.59a1.59,1.59,0,0,0-1.79-1.79h-3.26V310h9.44c3.66,0,5.53,1.54,5.53,5v2.44a18.74,18.74,0,0,1-.16,2.6h.16c1.87-5.94,6.83-10.66,13.18-10.66a12.92,12.92,0,0,1,1.87.17v10.17a18.41,18.41,0,0,0-2.52-.16,11.68,11.68,0,0,0-11.31,8.71,25,25,0,0,0-.89,6.75v16.44H754.4Z"/><polygon class="cls-1" points="604.95 299.36 583.15 286.07 561.37 299.36 561.37 285.7 583.15 272.41 604.94 285.7 604.95 299.36"/></svg>