<svg id="Layer_1" data-name="Layer 1" xmlns="http://www.w3.org/2000/svg" viewBox="0 0 1200 650"><defs><style>.cls-1{fill:#fda38c;}</style></defs><title>Logos</title><path class="cls-1" d="M470,348.69a10.16,10.16,0,0,0,1.6,4.73,15.8,15.8,0,0,0,4.73,4.58.53.53,0,0,0,.44.15c1.89-.15,3.85,1.6,5.67.15a12.85,12.85,0,0,0,7.85-3.71c1.45-1.45,3.13-2.69,4.14-4.58,1.45-2.84,3.27-5.45,4.44-8.58,3.27-9.82,3.56-10.69,3.27-19V322a4.52,4.52,0,0,0-1.31-3.85,13.43,13.43,0,0,0-4.29-4.29c-1.89-1.16-4.14-1-6.11-1.75-1-.44-1.75.73-2.55.73-2.55-.15-4.58,1.16-6.4,2.55a25.3,25.3,0,0,0-9.31,12.43c-.58,1.75-1.6,3.56-1.31,5.45a4.46,4.46,0,0,1,0,2.4c-1.31,2.4-.58,5.16-.87,6.84v6.18Zm8.87-4.29a4.18,4.18,0,0,0,.58-2.25,13,13,0,0,1,.29-4.14c.87-2.25,1.16-4.87,2-7.13,1-2.4,1.75-4.87,2.55-7.27v-.44a11.26,11.26,0,0,1,4.87-2.55c1.16-.44,2,.73,3,1,.29.15.44.87.58,1.31v4.14c-.15,1,.44,2.84-.87,4.58.15,1.75-.87,3.27-1.45,4.87a35.1,35.1,0,0,1-4.29,8.58,11.16,11.16,0,0,1-4.87,4.29,1.49,1.49,0,0,1-1.45-.58c-.58-1-.29-2.4-1.16-3.42A2.1,2.1,0,0,1,478.86,344.4Z"/><path class="cls-1" d="M538.7,347.38A3,3,0,0,0,539,343q-1.53-1.85-3.27-.65c-4,2.62-8.58,2.47-12.94,2.62-2.33.15-4.8-.73-7.13-1.24-.65-.15-.87-.65-.36-1.24,2.62-3.49,5.6-6.54,8.58-9.82,3.27-3.71,6.62-7.34,9.45-11.27,2.11-3,4-6.11,4.29-10,.15-2,.15-4-1.16-5.74a15.68,15.68,0,0,0-2-2.76c-1.67-1.6-3.34-3.2-6-3.56-2.18-.36-4.44-1.09-6.76-1a29.74,29.74,0,0,0-5.67.36,10.46,10.46,0,0,0-4,1.38c-.29.22-.8.36-.87.73a4.61,4.61,0,0,0-.8,3.13,3.44,3.44,0,0,0,1.53,1.89,3.27,3.27,0,0,0,2.62.65,13,13,0,0,1,3.34.22c1.31.22,2.47-.73,3.78-.15.87.22,2,.36,3,.51,1.31.22,2.11,1.09,3.13,1.89a1.55,1.55,0,0,1,.51,1.09,6.16,6.16,0,0,1-.87,3.13,46.64,46.64,0,0,1-3.49,4.94c-2.18,2.47-4.65,4.58-6.84,7.05s-4,5.24-6.47,7.34c-2.69,2.33-3.78,5.6-5.45,8.44a1.38,1.38,0,0,0-.29,1.09c.65,1.09.15,2.25.51,3.2.8,3.34,3.13,5.24,6.47,6.18a35.07,35.07,0,0,0,4.14.73,34.35,34.35,0,0,0,4.65.73c1.53-.15,3.13-.15,4.51-.15s2.47-.65,3.78-.73A14.72,14.72,0,0,0,538.7,347.38Z"/><path class="cls-1" d="M596.73,317.86a1.11,1.11,0,0,0-1.53-.29c-.58.29-1.24.29-1.67.65-2.33,1.89-5.09,3.13-7.27,5.31-1.09,1.09-2.47,2.18-4.22,3.71.15-2.76,0-4.65.44-6.54.44-2.18-.58-4.07-.44-6.18a31.45,31.45,0,0,0-.29-6.33,12.19,12.19,0,0,0-2.47-5.6,4.34,4.34,0,0,0-3.42-1.67,5.5,5.5,0,0,0-3.71,1.09,13.87,13.87,0,0,0-3.71,3.42,12.39,12.39,0,0,1-1.89,2.47c-.95.95-2.33,3.13-3.34,4.14-2.84,3.71-7.85,11.71-11,15.27-.15.29-.44.58-.65.58-.58-.15-.44-.65-.44-1.09-.15-1.53.65-2.76,1.09-4.22,1.38-4.94,4.51-15,6.47-19.78a21.51,21.51,0,0,0,.95-5.6,2.33,2.33,0,0,0-1.75-1.89c-.58-.15-1.09-.15-1.75-.29a1.76,1.76,0,0,0-2,1.24c-1.24,2.84-2.76,5.6-4.07,8.36s-2.76,5.45-3.27,8.65c-1.24,1.53-2,8.8-2.76,10.33a6.31,6.31,0,0,0-.8,4.36c.29,2.33.44,4.94,2.33,7a3.3,3.3,0,0,0,1.38,1.09c2.47.58,4.94.95,7-.65a54.74,54.74,0,0,0,5.31-4.73c1.89-2.18,5.53-8,7.42-10.33a68.82,68.82,0,0,0,4.14-5.89c.8-1.09,1.53-2.11,2-2,1,.36.15,1.53.15,2.62-.15,2.47-.44,5.09-.58,7.49-.15.65,0,1.38-.29,1.89-1.38,2.33-.95,4.94-1.24,7.42-.29,2-.44,4.22-.58,6.33a4.72,4.72,0,0,1-.65,1.67c-3.56,3.85-7.13,7.64-10.4,11.63-2.18,2.47-4.51,4.8-6.4,7.42-4,5.16-8.22,10.11-11.93,15.49-2.91,4.36-5.89,8.51-8.07,13.23s-4.22,9.6-4.51,15.05c-.15,3.56,1.09,8.51,4.22,11.34a12.43,12.43,0,0,0,10.83,3.27,21.89,21.89,0,0,0,8.36-3.85,48.56,48.56,0,0,0,10.11-11.34c1.67-2.47,2.91-5.09,4.36-7.64a111.85,111.85,0,0,0,6.54-15.34c.95-2.76,2.33-5.45,2.47-8.51,1.38-1.53.65-3.56,1.38-5.09a19.07,19.07,0,0,0,1.24-5.16A2.28,2.28,0,0,1,578,359c1.24-1.53.95-3.42,1.09-5.16s0-3.71.65-5.31c.95-2.18.8-4.36,1.09-6.54.29-1.53.29-3,.44-4.51A2,2,0,0,1,582,336c3.42-2.91,6.18-6.54,9.74-9.31a53,53,0,0,0,4.51-3.85l1.24-1.24a2.11,2.11,0,0,0,.29-2Zm-29.38,37.81c-.44,1.75,0,3.71-1.24,5.16a.53.53,0,0,0-.15.44c-.29,1.67-.15,3.56-.8,4.94s-.29,3.27-1.24,4.65-.58,3.27-1.67,4.51c.15,1.67-1.24,2.76-1.24,4.22s-1.09,2.33-1.38,3.71a19.89,19.89,0,0,1-1.89,4c-3,7-3.13,7.27-7.27,13.16-1.24,2.84-3.71,4.65-5.89,6.54a10.56,10.56,0,0,1-1.89,1.24c-2.18,1.24-3.71.95-5.6-.8a2.19,2.19,0,0,1-.65-1.09c-.15-2.33-1.67-4.65.15-7,.58-3.56,2.18-6.54,3.56-9.82a57.11,57.11,0,0,1,6.18-10.83c4.36-6.33,9-12.29,14-18.18,2.18-2.62,4.07-5.09,6.18-7.64.15-.29.58-.29.65-.58.15.29.44.58.44.8C567.5,353.85,567.35,354.8,567.35,355.67Z"/><path class="cls-1" d="M666.9,297.21c.95-1.75,2.91-7.56,3.56-9.38,1-3,1.45-6.25,2.55-9.24-.36-1.53,1.16-2.91.95-4.44,1.38-1.31,0-3.2,1.38-4.44.65-2.11.95-4.44,1.82-6.4.8-1.6.29-2.62-.44-3.85A2.41,2.41,0,0,0,674,258.3a4.58,4.58,0,0,0-3.85,2.47,40.22,40.22,0,0,0-2.47,5.74,39.64,39.64,0,0,1-2.76,7.56c-1.31,2.47-2,5.09-3.34,7.64-2,3.78-1.6,5.24-3.85,8.94,0,.15-1.75,2.91-1.67,3.05.07,2-5.09,13.6-6,15.2-.8,1.82-1.24,3.64-2.18,5.53-.44.51-.65.95-1.38.95a13.77,13.77,0,0,0-5.31,1,18.91,18.91,0,0,0-4.65,2.47,32.66,32.66,0,0,0-3.56,2.69c-1.09.95-2.33,1.75-3.42,2.69-.51.51-1.24.95-1.45,1.6-.51,1.31-1.6,2-2.4,3.05a47.66,47.66,0,0,0-3.78,4.8c-.95,1.45-1.6,3.05-2.62,4.51a11.89,11.89,0,0,0-1.45,3.05c-.36.95-.65,1.82-1,2.76-.65,1.16.07,2.55-.95,3.64-.15.15-.15.51-.15.8l.07,2.55a8.2,8.2,0,0,0,3.34,6.18c2.33,2,5.45,2.11,8.51.95,4.29-1.82,7-5,9.53-8.36,3.64-4.58,8.14-12.8,10.54-18.32.07-.22.29-.07.44-.29.29.15.73,4.22.07,6.33-.15.36-.65,4-1,5.31s.15,2.84,0,4.22a8.75,8.75,0,0,1-.36,1.67c-.58,2.62-.22,5.31,0,7.85a8.73,8.73,0,0,0,.95,2,4.19,4.19,0,0,0,4.22,2.55l1.82-.07a2.91,2.91,0,0,0,2.18-1.38,6.17,6.17,0,0,0,.65-1.6,1.7,1.7,0,0,0-.36-2.33c-.44-.51-1.16-1.09-1.16-1.6a17.58,17.58,0,0,1,.07-5.53c.07-.87.65-2,.44-2.84-.36-1.31.87-2.11.73-3.27-.22-2.33,1.38-4.29.87-6.62,1.09-1.6.58-3.64,1.45-5.24-.51-1.89.87-3.49.95-5.31.07-1.45.87-2.76.8-4.14,1.24-1.24.15-3.13,1.24-4.29,0-2.84,1.89-5.38,1.75-8.22C664.58,307,666.1,298.88,666.9,297.21Zm-24.43,29.16a31.35,31.35,0,0,0-2.55,5.74c-.65,1.82-2.11,3.27-2.91,5.16a50.68,50.68,0,0,1-5.67,9.53,14.15,14.15,0,0,1-5.6,4.87c-.8.44-1.38.07-1.6-.87l-.07-1a6.31,6.31,0,0,1,.51-2.18,68.18,68.18,0,0,1,5.53-10.11A58.63,58.63,0,0,1,639,327.31a26.53,26.53,0,0,1,3.27-2.33l.29.22c0,.15.15.22.15.36S642.62,326.08,642.47,326.37Z"/><path class="cls-1" d="M705.59,310.15c-1.45-2-5.24-3.34-8.14-2.69-1.75.51-3.71.87-5.16,1.89a59.18,59.18,0,0,0-6.47,4.36c-1.75,1.53-3.49,3.05-5.38,4.44-2.25,1.75-3.71,3.93-5.82,5.82-.36,1.31-2.11,2-2.76,3.13-1.67,2.69-3.78,5.38-5.31,8.22-2.47,4.51-3.42,8.22-3.13,11.56a7.6,7.6,0,0,0,1.82,4.58c1.89,2.25,4.65,2.76,8.07,1.6a18.91,18.91,0,0,0,8.22-5.82,78.34,78.34,0,0,0,7.71-10.54c1.53-2.47,3.13-4.87,4.8-7.34.65-.87,1.45-1.75,2.25-2.62.15-.22.44-.22.65-.44,0,.22.29.51.15.65-.8.95-.58,2-.58,3.05.07,1.38.36,2.84-.15,4.07a9.44,9.44,0,0,0-.44,3.71c-.07,2.33.07,4.65.15,6.91,0,.51.22,1.24-.07,1.67-.87,1.6-.44,3.2-.51,4.51l.15,3.05c.22,1.89,1.67,3.27,4.14,3.85a3.21,3.21,0,0,0,1.24-.15,5,5,0,0,0,2.25-1.6,2.67,2.67,0,0,0,.29-2.62c-1.31-2-.73-4.29-.8-6.4.95-.87.58-1.82.58-2.62s-.36-1.75.07-2.4a5.81,5.81,0,0,0,.65-3.71c-.36-1.45.58-2.76.65-4.14.22-1.16-.07-2.4.44-3.71s.29-2.55.36-3.78c0-.07-.15-.22,0-.29,1.16-1.38.58-2.84.65-4.36.07-1.82-.15-3.49-.22-5.24,0-.73-.36-1.75.07-2.33C707.33,312.77,705.37,311.61,705.59,310.15Zm-9,6a49.11,49.11,0,0,0-4.51,5.09c-1.45,1.75-2.47,3.71-3.93,5.38-1.82,2.4-3.42,4.87-5.09,7.34-2.25,3.27-4.14,6.62-6.91,9.53a6.25,6.25,0,0,1-1.31,1.45c-.65.58-.95,1.16-2,1.31-.95-2,.15-3.78,1.16-5.53,2.69-5,5.67-9.89,10.11-14.18,1-2.11,3.56-3.42,5.16-5.38s3.71-3.27,5.74-4.94a3.11,3.11,0,0,1,1.24-.44c0-.07.29,0,.29,0,.15.22.29.22.29.22Z"/><path class="cls-1" d="M739.55,297.14c.58-2.62,1.53-5.16,2.25-7.71.15-.51.36-.87.8-.87,3,.15,5.74-1.45,8.73-1.24,2.18.15,4.14-.95,6.4-1.24a7.83,7.83,0,0,0,2.62-1.24c1.16-.65,1.24-3.42-.44-4.22a3.3,3.3,0,0,0-2.18-.15,18.92,18.92,0,0,1-7,1,10.21,10.21,0,0,0-3.78.87,2.65,2.65,0,0,1-2.55-.15c-.73-.58-.44-1.45.07-2.11.65-.87.07-2,.58-2.91.87-1.75,1.16-3.78,1.82-5.67s1.09-3.93,1.67-5.82a31.87,31.87,0,0,0,.87-4.44,9.27,9.27,0,0,0,0-2.84,2.8,2.8,0,0,0-1-2.11c-1-1.24-2.33-1.16-3.71-1.09a2.42,2.42,0,0,0-2.4,1.6l-3,6.76c-2.11,5.09-3.78,10.4-5.82,15.56a34.72,34.72,0,0,0-1.09,3.93,1.85,1.85,0,0,1-1.67,1.6,40.87,40.87,0,0,0-4.07.44c-1.45.22-2.84.58-4.29.8-.65,0-8.87,1.09-8.22,1.09-1.45.07-2.69.95-4.14.95a6.35,6.35,0,0,0-5,3,.88.88,0,0,0,.07,1.09c1,1.09,2,2,3.71,1.82,1.24-.15,2.4-.07,3.64-.15v-.22l7.27-.65c1.89-.07,3.34-1.16,5.09-1.09a6.14,6.14,0,0,0,3.93-.65s.58.22.58.36c0,.36.15.87-.07,1.24-1.16,2-1.31,4.44-2.18,6.54s-1.31,4.29-2,6.47-1.16,4.44-1.89,6.69a33.54,33.54,0,0,0-1.53,5.45c-.36,1.89-1.24,3.56-1.53,5.45a39.91,39.91,0,0,0-.87,4.44c-.07,1.38-.95,2.76-.8,4.29-1.31,1.16-.44,2.91-1.16,4.29s0,3.27-1,4.8c.36,2.76-1.16,5.31-.65,8a3.09,3.09,0,0,1-.07,1.24c-.07,2-.51,3.34-.07,6,.15.87.36,2.33.44,3.34a33.71,33.71,0,0,1,.29,4.58c.07,1.38,1.09,3.71,1.67,5.31s2.4,2,3.78,2.69a2.46,2.46,0,0,0,1.24-.07c2.69-.87,3.56-2,3.34-4.65a4.49,4.49,0,0,0-.65-2,2.93,2.93,0,0,1-.44-1.6c-.07-2.25-.15-3-.15-4.14-.07-1.45.51-2.76.51-4,.07-2.25.8-3.93.73-6,.95-1.82.65-3.49,1.24-5.16s.8-3.64,1.24-5.53,1.16-3.93,1.38-5.82c.22-1.6,1.24-3.2.87-4.8a16.39,16.39,0,0,0,1.45-4.65c.51-1.53.51-3.27,1-4.8a34.07,34.07,0,0,0,2-6.91c.44-2.4,2-4.58,1.75-7.05A75.87,75.87,0,0,0,739.55,297.14Z"/><path class="cls-1" d="M773.22,313.57l-.07-.95c-.15-3.05-3.13-6.18-6.76-6.62a6.27,6.27,0,0,0-2.33.07c-3.27,1.16-6.69,2-9.09,4.51-1.38,1.45-3.34,2.47-4.14,4.29a44.84,44.84,0,0,0-9.09,14.69c-.8,2-1.16,4.07-1.82,6a14.66,14.66,0,0,0-.22,2.62,4.71,4.71,0,0,1-.36,1.53c-.51.87-.22,1.82-.29,2.62-.07,1.09,1.09,1.6.95,2.55a4.92,4.92,0,0,0,.29,2.69A29.62,29.62,0,0,0,747,358.29a11,11,0,0,0,10,3.42c2.18-.29,4.29-1,4.94-2.91a16.58,16.58,0,0,1,1.24-2.18c.29-.51.36-.95-.22-1.31l-2.4-1.89a1.5,1.5,0,0,0-1.75-.07,7.42,7.42,0,0,0-1.6.65c-.87.73-1.31.51-2,0-2.84-2.11-3.71-5.31-4.36-8.22-.51-2-.15-4.14-.22-6.25a1.89,1.89,0,0,1,.65-1.31A5.06,5.06,0,0,1,753,337c4.14-1.6,6.47-4.87,10.11-7.05a3.69,3.69,0,0,0,1.09-1.24,19,19,0,0,1,1.67-1.82c3.05-2.76,4.65-6.11,6.4-9.38C772.34,316,773.72,314.81,773.22,313.57Zm-10.54,4.07s-.51.95-.65,1.31c-1.45,2.55-3.05,6.11-4.8,7.42a4.39,4.39,0,0,1-2.4,1.16c-1.75-1.16,1.82-4.94,2.76-6.91a18.7,18.7,0,0,1,3-3.85l1-.8a2,2,0,0,1,.87-.44c.29.07.73.29.73.44A3.38,3.38,0,0,1,762.67,317.64Z"/><path class="cls-1" d="M590.33,267.61c-7.71-6.54-15.92-12.87-25.6-14.25-19.85-2.76-46.47,1.53-56.06,20.87-.44-.65-.87-1.24-1.38-1.89-3.05-3.71-5.6-8-10-10.47-1.31-.73-2.84-.87-4.07-1.53-2.4-1.31,2.4,1.24.07-.36-.44-.29-.8-.95-1.31-1.24-3.34-2.33-8.65-3.27-12.58-4.29-18.4-4.87-41.23,2.55-52.72,17.67-6.11,8.07-8.07,21.6-8.36,31.27-.29,10.83,4.94,23.34,10.25,32.58,8.65,15,20.58,30.4,34.76,40.36,3.78,2.62,7,6.62,10.69,9.38,2.33,1.75,6,4.87,9,7.49,7.71,6.76,18.54,14,28.21,17.6,5.16,1.89,6.69-2.4,1.45-4.36-3.2-1.16-6.54-3.78-9.31-5.53-4.58-2.84-9.45-5.74-13.53-9.31-2.33-2.11-4.73-4-7.27-5.89-1.09-.87-1.82-1.89-3-2.76a9.5,9.5,0,0,0-1.53-.58c.15.07.07,0-.51-.58-9.09-7.93-17.82-15.85-25.6-24.87a22.93,22.93,0,0,0,6.33-2.47,14.59,14.59,0,0,0,5.38-5.74,2.26,2.26,0,0,0-.44-2.47l-.73-.65c-1.38-1.24-2.4-1.38-3.78-.29a21.31,21.31,0,0,1-4.94,3c-3.42,1.53-5.09.95-6.47-2.18a3.82,3.82,0,0,1-.29-1.24v-8.07c1.24-1.75.58-3.85,2-5.45-.15-1.89,1.38-3.27,2-4.94a39.12,39.12,0,0,1,13.53-17.89c.44,2.91.58,2.91,0,4.51-.73,2.18-1,4.51-2.25,6.69a4.27,4.27,0,0,0-.29,3,1.79,1.79,0,0,0,2.25,1.09,5.87,5.87,0,0,0,2.69-2.62l2.84-5.09a15.07,15.07,0,0,0,2.25-9,8.16,8.16,0,0,0-2-4.51,7.39,7.39,0,0,0-8.44-1.67A27,27,0,0,0,453,306a56.26,56.26,0,0,0-6,7,54.64,54.64,0,0,0-6,10.11,12.25,12.25,0,0,0-2.11,4.51c-.29,1.38-1.38,2.62-1.67,4.07a22.66,22.66,0,0,0-.65,3.2c-8.14-15.2-12.22-32.72-5.31-50.1,2.91-7.34,7-13.38,13.82-17.67,8.58-5.45,15.34-7.71,25-8.07,4.58-.15,7.78,0,11.93,1.31,1.38.44,3.56.73,5.16,1.24-.58,0,1.09,1.6,2,2.11,2.18,1.31,3.78,1.16,5.67,2.84,1.67,1.45,2.47,3.49,3.78,5.31,3.05,4.22,4.87,8.44,7.42,13.09.87,1.6,7.93,4.8,8.51,1.67,4-22.91,32.72-33.09,52.94-27.56,2,.51,3,1.82,4.8,2.55.65.29,3.78,1.38,3.05.87a49.1,49.1,0,0,1,8.73,7.13c7.56,7.56,9.82,19.12,10.25,29.67.15,3,8.94,5.24,8.8,1.67C602.4,289.06,599.93,275.76,590.33,267.61ZM478.2,382.36c-.07-.07-.22-.07-.29-.15C476.46,381.12,477.77,382.14,478.2,382.36Z"/></svg>