<svg id="Layer_1" data-name="Layer 1" xmlns="http://www.w3.org/2000/svg" viewBox="0 0 1200 650"><defs><style>.cls-1{fill:#27306c;}.cls-2{fill:#ac1f23;}</style></defs><title>Logos</title><path class="cls-1" d="M464.68,409.9v-7.17H480.3a3.51,3.51,0,0,0,2.67-.87,3.71,3.71,0,0,0,.81-2.61V381.9h7.58v17q0,5.18-2.69,8.08t-8.37,2.9Z"/><path class="cls-1" d="M503.59,381.9v28H496v-28Z"/><path class="cls-1" d="M540.2,381.9v28h-7.54V399.09H516V409.9h-7.54v-28H516v10.15h16.69V381.9Z"/><path class="cls-1" d="M589.21,409.9H574.54a16.12,16.12,0,0,1-6.54-1.22,14,14,0,0,1-4.72-3.33,13.82,13.82,0,0,1-3.6-9.44,13.67,13.67,0,0,1,1.2-5.72,14.13,14.13,0,0,1,3.31-4.6,13.42,13.42,0,0,1,4.41-2.71,16.65,16.65,0,0,1,5.94-1h14.66v7.41H574.54a8.58,8.58,0,0,0-3.15.5,7.13,7.13,0,0,0-2.15,1.33,6.83,6.83,0,0,0-1.51,2.16,6.38,6.38,0,0,0-.56,2.65,6.48,6.48,0,0,0,.46,2.42,6.27,6.27,0,0,0,1.28,2,6.48,6.48,0,0,0,2.28,1.57,8.6,8.6,0,0,0,3.36.58h14.66Z"/><path class="cls-1" d="M625.24,381.9v28H617.7V399.09H601V409.9h-7.54v-28H601v10.15H617.7V381.9Z"/><path class="cls-1" d="M659.51,381.9v7.41H638.22c-.44,0-.66.24-.66.71v3.19h21.83v5.38H637.55V402c0,.5.22.75.66.75h21.29v7.17H634q-3.93,0-3.93-3.89V385.67q0-3.77,4-3.77Z"/><path class="cls-1" d="M698.71,404.48a7.61,7.61,0,0,1-.43,2.71,5.26,5.26,0,0,1-1.16,1.86,4.6,4.6,0,0,1-1.68,1.08,5.67,5.67,0,0,1-2,.35,8.7,8.7,0,0,1-3.13-.52,5.8,5.8,0,0,1-2.34-1.68l-15.37-17.77a.92.92,0,0,0-.66-.37.68.68,0,0,0-.5.21.78.78,0,0,0-.21.58v19h-7.37V387.83a8.45,8.45,0,0,1,.48-3,5.19,5.19,0,0,1,1.35-2,5.26,5.26,0,0,1,2.07-1.14,9.3,9.3,0,0,1,2.61-.35,7.05,7.05,0,0,1,6,2.78l13.67,16.36a.81.81,0,0,0,.33.27,1.07,1.07,0,0,0,.37.06c.38,0,.58-.25.58-.75V381.9h7.33Z"/><path class="cls-1" d="M717.17,409.9a16.12,16.12,0,0,1-6.54-1.22,14,14,0,0,1-4.72-3.33,13.82,13.82,0,0,1-3.6-9.44,13.67,13.67,0,0,1,1.2-5.72,14.13,14.13,0,0,1,3.31-4.6,13.42,13.42,0,0,1,4.41-2.71,16.65,16.65,0,0,1,5.94-1h15.12v7.41H717.17a8.58,8.58,0,0,0-3.15.5,7.13,7.13,0,0,0-2.15,1.33,6.83,6.83,0,0,0-1.51,2.16,6.38,6.38,0,0,0-.56,2.65,6.48,6.48,0,0,0,.46,2.42,6.27,6.27,0,0,0,1.28,2,7.24,7.24,0,0,0,2.28,1.64,7.88,7.88,0,0,0,3.36.64h7.17c.36,0,.54-.19.54-.58v-7.5h7.45v13.54a1.57,1.57,0,0,1-1.78,1.78Z"/><path class="cls-2" d="M596.77,312.24v-5.38H553.32v14.92l.12,9.39q0,11.16-6,17.1a21.85,21.85,0,0,1-6.64,4.34,31.15,31.15,0,0,1-6.89,2,53.86,53.86,0,0,1-5.79.51l.74,7.46h34.6a35.12,35.12,0,0,0,16.78-4.15,32.63,32.63,0,0,0,12.19-11.23,28,28,0,0,0,4.47-15.31l-.12-10.09Z"/><path class="cls-2" d="M580.23,250a35.14,35.14,0,0,0-16.78-4.15h-34.6l-.74,7.46a53.86,53.86,0,0,1,5.79.51,31,31,0,0,1,6.89,2,21.93,21.93,0,0,1,6.64,4.34q6,5.93,6,17.1l-.12,9.39v14.92h43.45V286.65l.12-10.09a28,28,0,0,0-4.47-15.32A32.65,32.65,0,0,0,580.23,250Z"/><path class="cls-2" d="M602.42,296.19v5.38h43.45V286.65l-.12-9.39q0-11.16,6-17.1a21.85,21.85,0,0,1,6.64-4.34,31.15,31.15,0,0,1,6.89-2,53.86,53.86,0,0,1,5.79-.51l-.74-7.46h-34.6A35.12,35.12,0,0,0,619,250a32.63,32.63,0,0,0-12.19,11.23,28,28,0,0,0-4.47,15.31l.12,10.09Z"/><path class="cls-2" d="M658.39,352.61a21.85,21.85,0,0,1-6.64-4.34q-6-5.93-6-17.1l.12-9.39V306.86H602.42v14.92l-.12,10.09a28,28,0,0,0,4.47,15.31A32.63,32.63,0,0,0,619,358.41a35.12,35.12,0,0,0,16.78,4.15h34.6l.74-7.46a53.86,53.86,0,0,1-5.79-.51A31.15,31.15,0,0,1,658.39,352.61Z"/></svg>