<?xml version="1.0" encoding="utf-8"?>
<!-- Generator: Adobe Illustrator 23.1.1, SVG Export Plug-In . SVG Version: 6.00 Build 0)  -->
<svg version="1.1" id="Layer_1" xmlns="http://www.w3.org/2000/svg" xmlns:xlink="http://www.w3.org/1999/xlink" x="0px" y="0px"
	 viewBox="0 0 1200 650" style="enable-background:new 0 0 1200 650;" xml:space="preserve">
<style type="text/css">
	.st0{clip-path:url(#SVGID_2_);}
	.st1{fill:#FF931E;}
	.st2{clip-path:url(#SVGID_4_);fill:#86786F;}
	.st3{clip-path:url(#SVGID_4_);fill:#F79226;}
</style>
<title>Logos</title>
<g>
	<g>
		<defs>
			<rect id="SVGID_1_" x="339.4" y="286.9" width="537.1" height="76.2"/>
		</defs>
		<clipPath id="SVGID_2_">
			<use xlink:href="#SVGID_1_"  style="overflow:visible;"/>
		</clipPath>
		<g class="st0">
			<path class="st1" d="M541,303.8c-0.4,0.8-0.9,1.5-1.6,2c-0.7,0.5-1.5,0.9-2.4,1.2c-0.9,0.3-2,0.4-3.1,0.4h-2.7v9.2H529v-21.9h5.4
				c2.2,0,4,0.5,5.3,1.6c1.3,1.1,1.9,2.6,1.9,4.6C541.6,302,541.4,303,541,303.8z M538.1,297.8c-0.9-0.7-2.1-1.1-3.8-1.1h-3.1v8.7
				h2.8c1.7,0,3-0.4,4-1.1c1-0.7,1.4-1.9,1.4-3.4C539.4,299.6,539,298.6,538.1,297.8z"/>
			<path class="st1" d="M559,316.9l-2.8-7.3h-9.6l-2.7,7.1h-2.2l8.6-22h2.3l8.6,21.8L559,316.9z M551.3,297.2l-4,10.4h8.1
				L551.3,297.2z"/>
			<path class="st1" d="M578.9,316.5l-2.2,0.5l-7.1-9.9h-2.8v9.7h-2.2v-21.9h5.6c2.2,0,3.9,0.5,5.1,1.5c1.3,1,1.9,2.5,1.9,4.4
				c0,0.8-0.1,1.6-0.4,2.3c-0.3,0.7-0.6,1.2-1.1,1.7c-0.5,0.5-1,0.9-1.6,1.2s-1.3,0.6-2.1,0.7L578.9,316.5z M573.7,297.9
				c-0.8-0.7-2.1-1.1-3.6-1.1h-3.3v8.4h2.9c1.6,0,2.9-0.4,3.9-1.1s1.4-1.8,1.4-3.2C575,299.6,574.5,298.6,573.7,297.9z"/>
			<path class="st1" d="M582.1,316.7v-21.9h11.4v2h-9.2v7.5h7.3l0.3,2h-7.6v8.5h9.6v2H582.1z"/>
			<path class="st1" d="M612.2,316.7l-12.8-18.4l0,18.4h-2.1v-21.9h2.1l12.4,17.9v-17.9h2.1v21.9H612.2z"/>
			<path class="st1" d="M626.6,296.8v19.9h-2.2v-19.9h-7.1v-2h16.2l0.3,2H626.6z"/>
			<path class="st1" d="M657.9,316.5l-2.2,0.5l-7.1-9.9h-2.8v9.7h-2.2v-21.9h5.6c2.2,0,3.9,0.5,5.1,1.5c1.3,1,1.9,2.5,1.9,4.4
				c0,0.8-0.1,1.6-0.4,2.3c-0.3,0.7-0.6,1.2-1.1,1.7c-0.5,0.5-1,0.9-1.6,1.2c-0.6,0.3-1.3,0.6-2.1,0.7L657.9,316.5z M652.7,297.9
				c-0.8-0.7-2.1-1.1-3.6-1.1h-3.3v8.4h2.9c1.6,0,2.9-0.4,3.9-1.1c0.9-0.7,1.4-1.8,1.4-3.2C654,299.6,653.6,298.6,652.7,297.9z"/>
			<path class="st1" d="M661.1,316.7v-21.9h11.4v2h-9.2v7.5h7.3l0.3,2h-7.6v8.5h9.6v2H661.1z"/>
			<path class="st1" d="M688,313.5c-0.3,0.8-0.8,1.4-1.4,1.9c-0.6,0.5-1.3,0.9-2.2,1.2c-0.8,0.3-1.7,0.4-2.7,0.4
				c-1.2,0-2.3-0.1-3.3-0.4c-1-0.3-1.8-0.6-2.5-1l0.3-2.2c0.7,0.4,1.5,0.8,2.5,1.1c1,0.3,2,0.5,3.1,0.5c1.3,0,2.4-0.3,3.2-1
				s1.3-1.7,1.3-2.9c0-0.5-0.1-1-0.2-1.4c-0.1-0.4-0.4-0.8-0.7-1.2c-0.3-0.4-0.8-0.7-1.4-1c-0.6-0.3-1.3-0.7-2.1-1
				c-1.1-0.5-1.9-0.9-2.7-1.3c-0.7-0.4-1.3-0.9-1.8-1.4c-0.5-0.5-0.8-1-1-1.6c-0.2-0.6-0.3-1.3-0.3-2c0-0.8,0.2-1.6,0.5-2.3
				c0.3-0.7,0.8-1.3,1.3-1.7c0.6-0.5,1.2-0.8,2-1.1c0.8-0.3,1.6-0.4,2.5-0.4c1,0,2,0.1,2.8,0.3c0.8,0.2,1.5,0.5,2.1,0.8l-0.3,2.2
				c-0.6-0.4-1.3-0.7-2.1-1c-0.8-0.2-1.6-0.4-2.5-0.4c-1.3,0-2.3,0.3-3,1c-0.7,0.7-1,1.5-1,2.4c0,0.5,0.1,1,0.2,1.3
				c0.1,0.4,0.4,0.7,0.7,1.1c0.3,0.3,0.8,0.7,1.3,1c0.6,0.3,1.3,0.7,2.1,1c1,0.4,1.9,0.9,2.6,1.3c0.7,0.4,1.3,0.9,1.8,1.4
				s0.8,1.1,1,1.7c0.2,0.6,0.3,1.3,0.3,2.1C688.5,311.9,688.3,312.7,688,313.5z"/>
			<path class="st1" d="M710.6,310.3c-0.5,1.4-1.2,2.6-2,3.6c-0.9,1-1.9,1.8-3.1,2.4c-1.2,0.6-2.6,0.8-4,0.8c-1.5,0-2.8-0.3-4-0.8
				c-1.2-0.5-2.2-1.3-3.1-2.3c-0.9-1-1.5-2.2-2-3.6c-0.5-1.4-0.7-2.9-0.7-4.6s0.2-3.2,0.7-4.6c0.5-1.4,1.2-2.6,2-3.6
				c0.9-1,1.9-1.8,3.1-2.3c1.2-0.6,2.6-0.8,4-0.8c1.5,0,2.8,0.3,4,0.8c1.2,0.5,2.2,1.3,3.1,2.3c0.9,1,1.5,2.2,2,3.6
				c0.5,1.4,0.7,2.9,0.7,4.6S711,308.9,710.6,310.3z M708.5,302c-0.4-1.2-0.9-2.2-1.6-3c-0.7-0.8-1.5-1.5-2.4-1.9
				c-0.9-0.5-2-0.7-3.1-0.7c-1.1,0-2.2,0.2-3.1,0.7c-0.9,0.5-1.7,1.1-2.4,1.9c-0.7,0.8-1.2,1.8-1.5,3c-0.4,1.1-0.5,2.4-0.5,3.8
				s0.2,2.7,0.6,3.8c0.4,1.2,0.9,2.2,1.6,3c0.7,0.8,1.5,1.5,2.4,1.9c0.9,0.5,2,0.7,3.1,0.7c1.1,0,2.2-0.2,3.1-0.7
				c0.9-0.5,1.7-1.1,2.4-1.9c0.7-0.8,1.2-1.8,1.5-3c0.4-1.1,0.5-2.4,0.5-3.8S708.8,303.1,708.5,302z"/>
			<path class="st1" d="M731.3,312c-0.4,1.1-0.9,2-1.7,2.7c-0.7,0.8-1.6,1.3-2.6,1.7c-1,0.4-2.2,0.6-3.5,0.6c-1.3,0-2.4-0.2-3.5-0.6
				s-1.9-1-2.6-1.7c-0.7-0.7-1.2-1.6-1.6-2.7c-0.4-1.1-0.6-2.2-0.6-3.5v-13.7h2.2v13.4c0,1,0.1,1.9,0.4,2.8c0.3,0.8,0.6,1.6,1.1,2.2
				c0.5,0.6,1.1,1.1,1.9,1.4s1.6,0.5,2.7,0.5c2,0,3.5-0.6,4.5-1.8c1-1.2,1.5-2.8,1.5-4.9v-13.6h2.2v13.6
				C731.8,309.7,731.6,310.9,731.3,312z"/>
			<path class="st1" d="M751.3,316.5l-2.2,0.5L742,307h-2.8v9.7H737v-21.9h5.6c2.2,0,3.9,0.5,5.1,1.5c1.3,1,1.9,2.5,1.9,4.4
				c0,0.8-0.1,1.6-0.4,2.3c-0.3,0.7-0.6,1.2-1.1,1.7c-0.5,0.5-1,0.9-1.6,1.2c-0.6,0.3-1.3,0.6-2.1,0.7L751.3,316.5z M746.1,297.9
				c-0.8-0.7-2.1-1.1-3.6-1.1h-3.3v8.4h2.9c1.6,0,2.9-0.4,3.9-1.1c0.9-0.7,1.4-1.8,1.4-3.2C747.4,299.6,747,298.6,746.1,297.9z"/>
			<path class="st1" d="M766.7,316.5c-1.2,0.4-2.4,0.6-3.7,0.6c-1.5,0-2.8-0.3-4-0.8c-1.2-0.5-2.3-1.3-3.1-2.3c-0.9-1-1.6-2.2-2-3.6
				c-0.5-1.4-0.7-2.9-0.7-4.6c0-1.7,0.2-3.2,0.7-4.6c0.5-1.4,1.2-2.6,2.1-3.6s2-1.8,3.2-2.3c1.2-0.6,2.6-0.8,4.1-0.8
				c1.2,0,2.4,0.2,3.4,0.5c1,0.3,1.9,0.8,2.8,1.4l-0.3,2.2c-0.9-0.6-1.8-1.1-2.7-1.5c-1-0.4-2-0.6-3.1-0.6c-1.2,0-2.3,0.2-3.3,0.7
				c-1,0.5-1.8,1.1-2.5,1.9c-0.7,0.8-1.2,1.8-1.6,3c-0.4,1.1-0.5,2.4-0.5,3.8c0,1.4,0.2,2.7,0.5,3.8s0.9,2.1,1.6,3
				c0.7,0.8,1.5,1.5,2.5,1.9c1,0.5,2,0.7,3.2,0.7s2.3-0.2,3.3-0.6c1-0.4,2-1,2.9-1.7l0.3,2.1C768.8,315.5,767.9,316.1,766.7,316.5z"
				/>
			<path class="st1" d="M773.6,316.7v-21.9h11.4v2h-9.2v7.5h7.3l0.3,2h-7.6v8.5h9.6v2H773.6z"/>
			<path class="st1" d="M800.5,313.5c-0.3,0.8-0.8,1.4-1.4,1.9c-0.6,0.5-1.3,0.9-2.2,1.2c-0.8,0.3-1.7,0.4-2.7,0.4
				c-1.2,0-2.3-0.1-3.3-0.4c-1-0.3-1.8-0.6-2.5-1l0.3-2.2c0.7,0.4,1.5,0.8,2.5,1.1c1,0.3,2,0.5,3.1,0.5c1.3,0,2.4-0.3,3.2-1
				s1.3-1.7,1.3-2.9c0-0.5-0.1-1-0.2-1.4c-0.1-0.4-0.4-0.8-0.7-1.2c-0.3-0.4-0.8-0.7-1.4-1c-0.6-0.3-1.3-0.7-2.1-1
				c-1.1-0.5-1.9-0.9-2.7-1.3c-0.7-0.4-1.3-0.9-1.8-1.4c-0.5-0.5-0.8-1-1-1.6c-0.2-0.6-0.3-1.3-0.3-2c0-0.8,0.2-1.6,0.5-2.3
				c0.3-0.7,0.8-1.3,1.3-1.7c0.6-0.5,1.2-0.8,2-1.1c0.8-0.3,1.6-0.4,2.5-0.4c1,0,2,0.1,2.8,0.3c0.8,0.2,1.5,0.5,2.1,0.8l-0.3,2.2
				c-0.6-0.4-1.3-0.7-2.1-1c-0.8-0.2-1.6-0.4-2.5-0.4c-1.3,0-2.3,0.3-3,1c-0.7,0.7-1,1.5-1,2.4c0,0.5,0.1,1,0.2,1.3
				c0.1,0.4,0.4,0.7,0.7,1.1c0.3,0.3,0.8,0.7,1.3,1c0.6,0.3,1.3,0.7,2.1,1c1,0.4,1.9,0.9,2.6,1.3c0.7,0.4,1.3,0.9,1.8,1.4
				s0.8,1.1,1,1.7c0.2,0.6,0.3,1.3,0.3,2.1C801,311.9,800.8,312.7,800.5,313.5z"/>
			<path class="st1" d="M813.7,296.8v7.8h7l0.3,2h-7.4v10.1h-2.2v-21.9h11v2H813.7z"/>
			<path class="st1" d="M843.8,310.3c-0.5,1.4-1.2,2.6-2,3.6c-0.9,1-1.9,1.8-3.1,2.4c-1.2,0.6-2.6,0.8-4,0.8c-1.5,0-2.8-0.3-4-0.8
				c-1.2-0.5-2.2-1.3-3.1-2.3c-0.9-1-1.5-2.2-2-3.6c-0.5-1.4-0.7-2.9-0.7-4.6s0.2-3.2,0.7-4.6c0.5-1.4,1.2-2.6,2-3.6
				c0.9-1,1.9-1.8,3.1-2.3c1.2-0.6,2.6-0.8,4-0.8c1.5,0,2.8,0.3,4,0.8c1.2,0.5,2.2,1.3,3.1,2.3c0.9,1,1.5,2.2,2,3.6
				c0.5,1.4,0.7,2.9,0.7,4.6S844.3,308.9,843.8,310.3z M841.7,302c-0.4-1.2-0.9-2.2-1.6-3c-0.7-0.8-1.5-1.5-2.4-1.9
				c-0.9-0.5-2-0.7-3.1-0.7c-1.1,0-2.2,0.2-3.1,0.7c-0.9,0.5-1.7,1.1-2.4,1.9c-0.7,0.8-1.2,1.8-1.5,3c-0.4,1.1-0.5,2.4-0.5,3.8
				s0.2,2.7,0.6,3.8c0.4,1.2,0.9,2.2,1.6,3c0.7,0.8,1.5,1.5,2.4,1.9c0.9,0.5,2,0.7,3.1,0.7c1.1,0,2.2-0.2,3.1-0.7
				c0.9-0.5,1.7-1.1,2.4-1.9c0.7-0.8,1.2-1.8,1.5-3c0.4-1.1,0.5-2.4,0.5-3.8S842.1,303.1,841.7,302z"/>
			<path class="st1" d="M863.3,316.5l-2.2,0.5L854,307h-2.8v9.7h-2.2v-21.9h5.6c2.2,0,3.9,0.5,5.1,1.5c1.3,1,1.9,2.5,1.9,4.4
				c0,0.8-0.1,1.6-0.4,2.3c-0.3,0.7-0.6,1.2-1.1,1.7c-0.5,0.5-1,0.9-1.6,1.2c-0.6,0.3-1.3,0.6-2.1,0.7L863.3,316.5z M858.1,297.9
				c-0.8-0.7-2.1-1.1-3.6-1.1h-3.3v8.4h2.9c1.6,0,2.9-0.4,3.9-1.1c0.9-0.7,1.4-1.8,1.4-3.2C859.4,299.6,858.9,298.6,858.1,297.9z"/>
		</g>
	</g>
	<g>
		<path class="st1" d="M529.2,353.6v-21.9h2.2v21.9H529.2z"/>
		<path class="st1" d="M551.8,353.6L539,335.2l0,18.4h-2.1v-21.9h2.1l12.4,17.9v-17.9h2.1v21.9H551.8z"/>
		<path class="st1" d="M571.5,353.4c-1.2,0.4-2.4,0.6-3.7,0.6c-1.5,0-2.8-0.3-4-0.8c-1.2-0.5-2.3-1.3-3.1-2.3c-0.9-1-1.6-2.2-2-3.6
			c-0.5-1.4-0.7-2.9-0.7-4.6c0-1.7,0.2-3.2,0.7-4.6c0.5-1.4,1.2-2.6,2.1-3.6s2-1.8,3.2-2.3c1.2-0.6,2.6-0.8,4.1-0.8
			c1.2,0,2.4,0.2,3.4,0.5c1,0.3,1.9,0.8,2.8,1.4l-0.3,2.2c-0.9-0.6-1.8-1.1-2.7-1.5c-1-0.4-2-0.6-3.1-0.6c-1.2,0-2.3,0.2-3.3,0.7
			c-1,0.5-1.8,1.1-2.5,1.9c-0.7,0.8-1.2,1.8-1.6,3c-0.4,1.1-0.5,2.4-0.5,3.8c0,1.4,0.2,2.7,0.5,3.8c0.4,1.2,0.9,2.1,1.6,3
			c0.7,0.8,1.5,1.5,2.5,1.9c1,0.5,2,0.7,3.2,0.7c1.2,0,2.3-0.2,3.3-0.6c1-0.4,2-1,2.9-1.7l0.3,2.1
			C573.6,352.5,572.6,353,571.5,353.4z"/>
		<path class="st1" d="M578.4,353.6v-21.9h2.2v19.9h8.4l0.3,2H578.4z"/>
		<path class="st1" d="M607.4,348.9c-0.4,1.1-0.9,2-1.7,2.7c-0.7,0.8-1.6,1.3-2.6,1.7s-2.2,0.6-3.5,0.6c-1.3,0-2.4-0.2-3.5-0.6
			c-1-0.4-1.9-1-2.6-1.7c-0.7-0.7-1.2-1.6-1.6-2.7c-0.4-1.1-0.6-2.2-0.6-3.5v-13.7h2.2v13.4c0,1,0.1,1.9,0.4,2.8
			c0.3,0.8,0.6,1.6,1.1,2.2c0.5,0.6,1.1,1.1,1.9,1.4c0.8,0.3,1.6,0.5,2.7,0.5c2,0,3.5-0.6,4.5-1.8c1-1.2,1.5-2.8,1.5-4.9v-13.6h2.2
			v13.6C608,346.6,607.8,347.8,607.4,348.9z"/>
		<path class="st1" d="M623.9,350.4c-0.3,0.8-0.8,1.4-1.4,1.9c-0.6,0.5-1.3,0.9-2.2,1.2c-0.8,0.3-1.7,0.4-2.7,0.4
			c-1.2,0-2.3-0.1-3.3-0.4c-1-0.3-1.8-0.6-2.5-1l0.3-2.2c0.7,0.4,1.5,0.8,2.5,1.1c1,0.3,2,0.5,3.1,0.5c1.3,0,2.4-0.3,3.2-1
			c0.9-0.7,1.3-1.7,1.3-2.9c0-0.5-0.1-1-0.2-1.4c-0.1-0.4-0.4-0.8-0.7-1.2c-0.3-0.4-0.8-0.7-1.4-1c-0.6-0.3-1.3-0.7-2.1-1
			c-1.1-0.5-1.9-0.9-2.7-1.3c-0.7-0.4-1.3-0.9-1.8-1.4c-0.5-0.5-0.8-1-1-1.6c-0.2-0.6-0.3-1.3-0.3-2c0-0.8,0.2-1.6,0.5-2.3
			c0.3-0.7,0.8-1.3,1.3-1.7c0.6-0.5,1.2-0.8,2-1.1c0.8-0.3,1.6-0.4,2.5-0.4c1,0,2,0.1,2.8,0.3c0.8,0.2,1.5,0.5,2.1,0.8l-0.3,2.2
			c-0.6-0.4-1.3-0.7-2.1-1c-0.8-0.2-1.6-0.4-2.5-0.4c-1.3,0-2.3,0.3-3,1c-0.7,0.7-1,1.5-1,2.4c0,0.5,0.1,1,0.2,1.3
			c0.1,0.4,0.4,0.7,0.7,1.1c0.3,0.3,0.8,0.7,1.3,1c0.6,0.3,1.3,0.7,2.1,1c1,0.4,1.9,0.9,2.6,1.3c0.7,0.4,1.3,0.9,1.8,1.4
			c0.5,0.5,0.8,1.1,1,1.7c0.2,0.6,0.3,1.3,0.3,2.1C624.4,348.8,624.2,349.6,623.9,350.4z"/>
		<path class="st1" d="M628.5,353.6v-21.9h2.2v21.9H628.5z"/>
		<path class="st1" d="M644.8,353.8h-2l-8.5-21.8l2.2-0.5l7.4,19.4l7.3-19.2h2.3L644.8,353.8z"/>
		<path class="st1" d="M656.9,353.6v-21.9h11.4v2h-9.2v7.5h7.3l0.3,2h-7.6v8.5h9.6v2H656.9z"/>
		<path class="st1" d="M678.8,353.6v-21.9h2.2v19.9h8.4l0.3,2H678.8z"/>
		<path class="st1" d="M693.1,353.6v-21.9h11.4v2h-9.2v7.5h7.3l0.3,2h-7.6v8.5h9.6v2H693.1z"/>
		<path class="st1" d="M724.8,353.9l-2.8-7.3h-9.6l-2.7,7.1h-2.2l8.6-22h2.3l8.6,21.8L724.8,353.9z M717.2,334.1l-4,10.4h8.1
			L717.2,334.1z"/>
		<path class="st1" d="M744.7,353.4l-2.2,0.5l-7.1-9.9h-2.8v9.7h-2.2v-21.9h5.6c2.2,0,3.9,0.5,5.1,1.5c1.3,1,1.9,2.5,1.9,4.4
			c0,0.8-0.1,1.6-0.4,2.3c-0.3,0.7-0.6,1.2-1.1,1.7c-0.5,0.5-1,0.9-1.6,1.2c-0.6,0.3-1.3,0.6-2.1,0.7L744.7,353.4z M739.5,334.8
			c-0.8-0.7-2.1-1.1-3.6-1.1h-3.3v8.4h2.9c1.6,0,2.9-0.4,3.9-1.1c0.9-0.7,1.4-1.8,1.4-3.2C740.8,336.5,740.4,335.5,739.5,334.8z"/>
		<path class="st1" d="M762.8,353.6L750,335.2l0,18.4H748v-21.9h2.1l12.3,17.9v-17.9h2.1v21.9H762.8z"/>
		<path class="st1" d="M770,353.6v-21.9h2.2v21.9H770z"/>
		<path class="st1" d="M792.6,353.6l-12.8-18.4l0,18.4h-2.1v-21.9h2.1l12.3,17.9v-17.9h2.1v21.9H792.6z"/>
		<path class="st1" d="M812.8,353.4c-1.2,0.4-2.5,0.6-3.9,0.6c-1.6,0-3.1-0.3-4.3-0.8c-1.3-0.5-2.3-1.3-3.2-2.3
			c-0.9-1-1.6-2.2-2-3.6c-0.5-1.4-0.7-2.9-0.7-4.6c0-1.7,0.2-3.2,0.7-4.6c0.5-1.4,1.2-2.6,2-3.6c0.9-1,1.9-1.8,3.2-2.3
			c1.2-0.6,2.6-0.8,4.2-0.8c1.4,0,2.6,0.2,3.6,0.5c1.1,0.3,2,0.8,2.9,1.4l-0.4,2.3c-0.8-0.7-1.7-1.2-2.7-1.6c-1-0.4-2.1-0.6-3.4-0.6
			c-1.2,0-2.3,0.2-3.3,0.7c-1,0.4-1.8,1.1-2.4,1.9c-0.7,0.8-1.2,1.8-1.5,3c-0.4,1.2-0.5,2.4-0.5,3.9c0,1.4,0.2,2.7,0.5,3.9
			s0.9,2.1,1.6,3c0.7,0.8,1.5,1.4,2.5,1.9c1,0.4,2.1,0.7,3.4,0.7c1,0,1.9-0.1,2.7-0.4c0.8-0.2,1.5-0.6,2.3-1v-6.6h-5.3l-0.3-2h7.8
			v9.7C815.1,352.5,814,353,812.8,353.4z"/>
	</g>
	<g>
		<defs>
			<rect id="SVGID_3_" x="339.4" y="295.1" width="175.3" height="58"/>
		</defs>
		<clipPath id="SVGID_4_">
			<use xlink:href="#SVGID_3_"  style="overflow:visible;"/>
		</clipPath>
		<path class="st2" d="M339.4,295.1h23.7c13.8,0,22.2,8.2,22.2,20v0.2c0,13.4-10.4,20.4-23.4,20.4h-9.7v17.4h-12.8V295.1z
			 M362.3,324.3c6.4,0,10.1-3.8,10.1-8.8v-0.2c0-5.7-4-8.8-10.4-8.8h-9.9v17.7H362.3z"/>
		<path class="st2" d="M392.6,295.1h26.5c7.4,0,13.1,2.1,16.9,5.9c3.2,3.2,5,7.8,5,13.3v0.2c0,9.4-5.1,15.2-12.4,18l14.2,20.7h-14.9
			l-12.4-18.6h-10v18.6h-12.8V295.1z M418.3,323.2c6.2,0,9.8-3.3,9.8-8.2v-0.2c0-5.5-3.8-8.3-10-8.3h-12.7v16.7H418.3z"/>
		<rect x="449.4" y="314.9" class="st2" width="12.8" height="38.2"/>
		<polygon class="st2" points="473,295.1 485.8,295.1 485.8,341.5 514.7,341.5 514.7,353.1 473,353.1 		"/>
		<path class="st3" d="M462.8,302.3c0,4-3.2,7.2-7.2,7.2c-4,0-7.2-3.2-7.2-7.2c0-4,3.2-7.2,7.2-7.2
			C459.6,295.1,462.8,298.3,462.8,302.3"/>
	</g>
</g>
</svg>
