<svg id="Layer_1" data-name="Layer 1" xmlns="http://www.w3.org/2000/svg" viewBox="0 0 1200 650"><defs><style>.cls-1{fill:#ce9486;}.cls-2{fill:#a57168;}</style></defs><title>Logos</title><path class="cls-1" d="M573.48,354.18v2h-36.1v-2c5,0,8.61-4.3,8.61-12.43V277.67l-31.8,79.61h-2l-33.47-71.72V326s-.24,28.21,16.26,28.21v2H458.73v-2c17.93,0,17.93-28.21,17.93-28.21V282.34c-4.54-8-10.52-8-13.51-8.25v-2h30.12l28.81,60.6L546,272.06H572.4v2c-5.14,0-9.2,3.23-9.2,10.52v57.14C563.2,349.87,568.34,354.18,573.48,354.18Z"/><path class="cls-1" d="M633.12,348l2,.84c-1,3.83-6.45,8.49-14,8.49,0,0-10.64,0-12-9.68-1.79,5.26-8.85,9.68-17.33,9.68,0,0-13.75,0-13.75-12.19,0-13,10-14.22,31-19.48V318.2c0-12.43-6.93-18.65-15.18-14.34-3.83,1.91-4.3,3.94-3.47,4.06a6.18,6.18,0,0,1,4.42,2.63,6.76,6.76,0,0,1-1.79,9.44,6.87,6.87,0,0,1-9.44-1.79,7.06,7.06,0,0,1-.36-7.17c1.2-2,2.75-5.26,9.32-8.73a23.82,23.82,0,0,1,11.59-2.39c15.66,0,20,9.8,20,23.91v17.81S624,350,629.89,350C629.89,350,632.4,350,633.12,348Zm-24-20.2c-11.72,2.63-15.66,8.25-15.66,14.34,0,0,0,7.89,7.77,7.89,4.06,0,6.81-3.23,7.89-6.1Z"/><path class="cls-1" d="M681.77,302.06a8.94,8.94,0,0,1-11.72,13.51,8,8,0,0,1-2.75-5.86c0-1.31-4.9-.12-9.32,7.05v24.86c0,6.69.6,11.36,4.9,12.55v2H638.14v-2c4.66-1.43,4.78-6.34,4.78-12.55V315.09c0-4.06-1.08-5.86-6-8.37v-2l21-4.78v13.51c6.34-9.92,11.24-11.71,14.1-12.91A10.69,10.69,0,0,1,681.77,302.06Z"/><path class="cls-1" d="M751.81,329.31c0,19.24-12.67,28-29.41,28-7.17,0-13.51-2.15-17.45-6.1-4.3,3.71-11.71,6.34-11.71,4.42V281.14c0-4.06-1.2-5.86-6.1-7.65v-2L708.06,267v43c3.83-7.17,12.67-10.16,18.41-10.16C739.86,299.91,751.81,310.43,751.81,329.31Zm-17.09,1c0-19.13-4.42-25.34-14.22-25.34-8.13,0-12.43,6.69-12.43,15.18v15.18c0,15.06,7.41,20,14.22,20C731,355.25,734.72,348.56,734.72,330.27Z"/><path class="cls-1" d="M782.41,354.18v2H757.9v-2c4.54-1.31,4.78-6.34,4.78-12.43V281.26c0-4.18-1.2-6-6-7.77v-2L777.63,267v74.71C777.63,348.32,778.22,353.1,782.41,354.18Z"/><path class="cls-1" d="M847.31,301v2c-2.51,0-8,.24-15.66,18.65l-18.29,48.17c-3.11,8.13-6.69,11.48-9,13.27a9.64,9.64,0,0,1-9.2,1.2,8.42,8.42,0,0,1-4.18-11,8.31,8.31,0,0,1,11-4.18,7.53,7.53,0,0,1,4.06,4.9c.48,1.43,3.35.6,5.26-4.42l4.54-12.31c-7.41-17.09-22.59-49.61-22.59-49.61-1.91-4.66-5.74-4.66-7.53-4.66v-2H814v2c-6.22,0-3.11,7.29-3.11,7.29l12.67,27,6.34-16.14s7.89-18.29-6-18.17v-2Z"/><path class="cls-1" d="M365.89,296v48.84a38,38,0,0,0,13.34,8.25l19.69-21Z"/><path class="cls-1" d="M418.63,290.24a37.95,37.95,0,0,0-52.77-.32l26.24,28.65Z"/><path class="cls-2" d="M354.09,317.39a37.81,37.81,0,0,0,7.7,22.92V294.47A37.81,37.81,0,0,0,354.09,317.39Z"/><path class="cls-1" d="M430.05,317.39a37.81,37.81,0,0,0-7.7-22.92V340.3A37.81,37.81,0,0,0,430.05,317.39Z"/><polygon class="cls-2" points="401.73 329.11 418.25 311.47 418.25 296.64 394.87 321.61 401.73 329.11"/><path class="cls-2" d="M383.65,354.42a37.92,37.92,0,0,0,34.6-9.53V317.47Z"/></svg>